<svg width="969" height="354" viewBox="0 0 969 354" fill="none" xmlns="http://www.w3.org/2000/svg">
<path d="M215.736 259.168H210.264V257.008H223.512V259.168H218.04V274H215.736V259.168ZM225.413 255.856H227.573V264.376H227.621C227.893 263.768 228.365 263.28 229.037 262.912C229.709 262.528 230.485 262.336 231.365 262.336C231.909 262.336 232.429 262.424 232.925 262.6C233.437 262.76 233.877 263.016 234.245 263.368C234.629 263.72 234.933 264.176 235.157 264.736C235.381 265.28 235.493 265.928 235.493 266.68V274H233.333V267.28C233.333 266.752 233.261 266.304 233.117 265.936C232.973 265.552 232.781 265.248 232.541 265.024C232.301 264.784 232.021 264.616 231.701 264.52C231.397 264.408 231.077 264.352 230.741 264.352C230.293 264.352 229.877 264.424 229.493 264.568C229.109 264.712 228.773 264.944 228.485 265.264C228.197 265.568 227.973 265.96 227.813 266.44C227.653 266.92 227.573 267.488 227.573 268.144V274H225.413V255.856ZM240.381 269.104C240.381 269.6 240.485 270.056 240.693 270.472C240.917 270.872 241.205 271.216 241.557 271.504C241.909 271.792 242.317 272.016 242.781 272.176C243.245 272.336 243.725 272.416 244.221 272.416C244.893 272.416 245.477 272.264 245.973 271.96C246.469 271.64 246.925 271.224 247.341 270.712L248.973 271.96C247.773 273.512 246.093 274.288 243.933 274.288C243.037 274.288 242.221 274.136 241.485 273.832C240.765 273.528 240.149 273.112 239.637 272.584C239.141 272.04 238.757 271.408 238.485 270.688C238.213 269.952 238.077 269.16 238.077 268.312C238.077 267.464 238.221 266.68 238.509 265.96C238.813 265.224 239.221 264.592 239.733 264.064C240.261 263.52 240.885 263.096 241.605 262.792C242.325 262.488 243.109 262.336 243.957 262.336C244.965 262.336 245.813 262.512 246.501 262.864C247.205 263.216 247.781 263.68 248.229 264.256C248.677 264.816 248.997 265.456 249.189 266.176C249.397 266.88 249.501 267.6 249.501 268.336V269.104H240.381ZM247.197 267.376C247.181 266.896 247.101 266.456 246.957 266.056C246.829 265.656 246.629 265.312 246.357 265.024C246.085 264.72 245.741 264.488 245.325 264.328C244.925 264.152 244.453 264.064 243.909 264.064C243.381 264.064 242.893 264.168 242.445 264.376C242.013 264.568 241.645 264.824 241.341 265.144C241.037 265.464 240.797 265.824 240.621 266.224C240.461 266.608 240.381 266.992 240.381 267.376H247.197ZM258.765 255.856H260.925V264.256H260.973C261.357 263.664 261.909 263.2 262.629 262.864C263.349 262.512 264.117 262.336 264.933 262.336C265.813 262.336 266.605 262.488 267.309 262.792C268.029 263.096 268.637 263.52 269.133 264.064C269.645 264.592 270.037 265.224 270.309 265.96C270.581 266.68 270.717 267.464 270.717 268.312C270.717 269.16 270.581 269.944 270.309 270.664C270.037 271.384 269.645 272.016 269.133 272.56C268.637 273.104 268.029 273.528 267.309 273.832C266.605 274.136 265.813 274.288 264.933 274.288C264.165 274.288 263.413 274.12 262.677 273.784C261.957 273.448 261.389 272.976 260.973 272.368H260.925V274H258.765V255.856ZM264.669 272.272C265.245 272.272 265.765 272.176 266.229 271.984C266.693 271.776 267.085 271.504 267.405 271.168C267.725 270.816 267.973 270.4 268.149 269.92C268.325 269.424 268.413 268.888 268.413 268.312C268.413 267.736 268.325 267.208 268.149 266.728C267.973 266.232 267.725 265.816 267.405 265.48C267.085 265.128 266.693 264.856 266.229 264.664C265.765 264.456 265.245 264.352 264.669 264.352C264.093 264.352 263.573 264.456 263.109 264.664C262.645 264.856 262.253 265.128 261.933 265.48C261.613 265.816 261.365 266.232 261.189 266.728C261.013 267.208 260.925 267.736 260.925 268.312C260.925 268.888 261.013 269.424 261.189 269.92C261.365 270.4 261.613 270.816 261.933 271.168C262.253 271.504 262.645 271.776 263.109 271.984C263.573 272.176 264.093 272.272 264.669 272.272ZM275.069 269.104C275.069 269.6 275.173 270.056 275.381 270.472C275.605 270.872 275.893 271.216 276.245 271.504C276.597 271.792 277.005 272.016 277.469 272.176C277.933 272.336 278.413 272.416 278.909 272.416C279.581 272.416 280.165 272.264 280.661 271.96C281.157 271.64 281.613 271.224 282.029 270.712L283.661 271.96C282.461 273.512 280.781 274.288 278.621 274.288C277.725 274.288 276.909 274.136 276.173 273.832C275.453 273.528 274.837 273.112 274.325 272.584C273.829 272.04 273.445 271.408 273.173 270.688C272.901 269.952 272.765 269.16 272.765 268.312C272.765 267.464 272.909 266.68 273.197 265.96C273.501 265.224 273.909 264.592 274.421 264.064C274.949 263.52 275.573 263.096 276.293 262.792C277.013 262.488 277.797 262.336 278.645 262.336C279.653 262.336 280.501 262.512 281.189 262.864C281.893 263.216 282.469 263.68 282.917 264.256C283.365 264.816 283.685 265.456 283.877 266.176C284.085 266.88 284.189 267.6 284.189 268.336V269.104H275.069ZM281.885 267.376C281.869 266.896 281.789 266.456 281.645 266.056C281.517 265.656 281.317 265.312 281.045 265.024C280.773 264.72 280.429 264.488 280.013 264.328C279.613 264.152 279.141 264.064 278.597 264.064C278.069 264.064 277.581 264.168 277.133 264.376C276.701 264.568 276.333 264.824 276.029 265.144C275.725 265.464 275.485 265.824 275.309 266.224C275.149 266.608 275.069 266.992 275.069 267.376H281.885ZM292.821 265.48C292.565 265.16 292.245 264.896 291.861 264.688C291.493 264.464 291.037 264.352 290.493 264.352C289.981 264.352 289.533 264.464 289.149 264.688C288.781 264.896 288.597 265.208 288.597 265.624C288.597 265.96 288.701 266.232 288.909 266.44C289.133 266.648 289.389 266.816 289.677 266.944C289.981 267.072 290.301 267.168 290.637 267.232C290.973 267.296 291.261 267.352 291.501 267.4C291.965 267.512 292.397 267.648 292.797 267.808C293.213 267.968 293.565 268.176 293.853 268.432C294.157 268.688 294.389 269 294.549 269.368C294.725 269.736 294.813 270.184 294.813 270.712C294.813 271.352 294.677 271.904 294.405 272.368C294.133 272.816 293.781 273.184 293.349 273.472C292.917 273.76 292.421 273.968 291.861 274.096C291.317 274.224 290.765 274.288 290.205 274.288C289.261 274.288 288.429 274.144 287.709 273.856C287.005 273.568 286.373 273.04 285.813 272.272L287.445 270.928C287.797 271.28 288.189 271.592 288.621 271.864C289.053 272.136 289.581 272.272 290.205 272.272C290.477 272.272 290.749 272.248 291.021 272.2C291.309 272.136 291.557 272.048 291.765 271.936C291.989 271.808 292.165 271.656 292.293 271.48C292.437 271.288 292.509 271.072 292.509 270.832C292.509 270.512 292.405 270.248 292.197 270.04C292.005 269.832 291.765 269.672 291.477 269.56C291.205 269.432 290.909 269.336 290.589 269.272C290.285 269.192 290.013 269.128 289.773 269.08C289.309 268.968 288.869 268.84 288.453 268.696C288.037 268.552 287.669 268.36 287.349 268.12C287.029 267.88 286.773 267.576 286.581 267.208C286.389 266.84 286.293 266.384 286.293 265.84C286.293 265.248 286.413 264.736 286.653 264.304C286.909 263.856 287.237 263.488 287.637 263.2C288.053 262.912 288.517 262.696 289.029 262.552C289.557 262.408 290.085 262.336 290.613 262.336C291.381 262.336 292.117 262.48 292.821 262.768C293.525 263.056 294.085 263.536 294.501 264.208L292.821 265.48ZM303.533 264.496H300.437V269.656C300.437 269.976 300.445 270.296 300.461 270.616C300.477 270.92 300.533 271.2 300.629 271.456C300.741 271.696 300.901 271.896 301.109 272.056C301.333 272.2 301.653 272.272 302.069 272.272C302.325 272.272 302.589 272.248 302.861 272.2C303.133 272.152 303.381 272.064 303.605 271.936V273.904C303.349 274.048 303.013 274.144 302.597 274.192C302.197 274.256 301.885 274.288 301.661 274.288C300.829 274.288 300.181 274.176 299.717 273.952C299.269 273.712 298.933 273.408 298.709 273.04C298.501 272.672 298.373 272.264 298.325 271.816C298.293 271.352 298.277 270.888 298.277 270.424V264.496H295.781V262.624H298.277V259.432H300.437V262.624H303.533V264.496ZM324.399 274H322.239V272.368H322.191C321.775 272.976 321.199 273.448 320.463 273.784C319.743 274.12 318.999 274.288 318.231 274.288C317.351 274.288 316.551 274.136 315.831 273.832C315.127 273.528 314.519 273.104 314.007 272.56C313.511 272.016 313.127 271.384 312.855 270.664C312.583 269.944 312.447 269.16 312.447 268.312C312.447 267.464 312.583 266.68 312.855 265.96C313.127 265.224 313.511 264.592 314.007 264.064C314.519 263.52 315.127 263.096 315.831 262.792C316.551 262.488 317.351 262.336 318.231 262.336C319.047 262.336 319.815 262.512 320.535 262.864C321.255 263.2 321.807 263.664 322.191 264.256H322.239V255.856H324.399V274ZM318.495 272.272C319.071 272.272 319.591 272.176 320.055 271.984C320.519 271.776 320.911 271.504 321.231 271.168C321.551 270.816 321.799 270.4 321.975 269.92C322.151 269.424 322.239 268.888 322.239 268.312C322.239 267.736 322.151 267.208 321.975 266.728C321.799 266.232 321.551 265.816 321.231 265.48C320.911 265.128 320.519 264.856 320.055 264.664C319.591 264.456 319.071 264.352 318.495 264.352C317.919 264.352 317.399 264.456 316.935 264.664C316.471 264.856 316.079 265.128 315.759 265.48C315.439 265.816 315.191 266.232 315.015 266.728C314.839 267.208 314.751 267.736 314.751 268.312C314.751 268.888 314.839 269.424 315.015 269.92C315.191 270.4 315.439 270.816 315.759 271.168C316.079 271.504 316.471 271.776 316.935 271.984C317.399 272.176 317.919 272.272 318.495 272.272ZM327.719 264.016C328.327 263.456 329.031 263.04 329.831 262.768C330.631 262.48 331.431 262.336 332.231 262.336C333.063 262.336 333.775 262.44 334.367 262.648C334.975 262.856 335.471 263.136 335.855 263.488C336.239 263.84 336.519 264.248 336.695 264.712C336.887 265.16 336.983 265.632 336.983 266.128V271.936C336.983 272.336 336.991 272.704 337.007 273.04C337.023 273.376 337.047 273.696 337.079 274H335.159C335.111 273.424 335.087 272.848 335.087 272.272H335.039C334.559 273.008 333.991 273.528 333.335 273.832C332.679 274.136 331.919 274.288 331.055 274.288C330.527 274.288 330.023 274.216 329.543 274.072C329.063 273.928 328.639 273.712 328.271 273.424C327.919 273.136 327.639 272.784 327.431 272.368C327.223 271.936 327.119 271.44 327.119 270.88C327.119 270.144 327.279 269.528 327.599 269.032C327.935 268.536 328.383 268.136 328.943 267.832C329.519 267.512 330.183 267.288 330.935 267.16C331.703 267.016 332.519 266.944 333.383 266.944H334.967V266.464C334.967 266.176 334.911 265.888 334.799 265.6C334.687 265.312 334.519 265.056 334.295 264.832C334.071 264.592 333.791 264.408 333.455 264.28C333.119 264.136 332.719 264.064 332.255 264.064C331.839 264.064 331.471 264.104 331.151 264.184C330.847 264.264 330.567 264.368 330.311 264.496C330.055 264.608 329.823 264.744 329.615 264.904C329.407 265.064 329.207 265.216 329.015 265.36L327.719 264.016ZM333.815 268.528C333.303 268.528 332.775 268.56 332.231 268.624C331.703 268.672 331.215 268.776 330.767 268.936C330.335 269.096 329.975 269.32 329.687 269.608C329.415 269.896 329.279 270.264 329.279 270.712C329.279 271.368 329.495 271.84 329.927 272.128C330.375 272.416 330.975 272.56 331.727 272.56C332.319 272.56 332.823 272.464 333.239 272.272C333.655 272.064 333.991 271.8 334.247 271.48C334.503 271.16 334.687 270.808 334.799 270.424C334.911 270.024 334.967 269.632 334.967 269.248V268.528H333.815ZM338.748 262.624H341.244L344.628 271.504H344.676L347.892 262.624H350.22L344.82 276.448C344.628 276.944 344.428 277.392 344.22 277.792C344.012 278.208 343.764 278.56 343.476 278.848C343.188 279.136 342.836 279.36 342.42 279.52C342.02 279.68 341.524 279.76 340.932 279.76C340.612 279.76 340.284 279.736 339.948 279.688C339.628 279.656 339.316 279.576 339.012 279.448L339.276 277.48C339.708 277.656 340.14 277.744 340.572 277.744C340.908 277.744 341.188 277.696 341.412 277.6C341.652 277.52 341.852 277.392 342.012 277.216C342.188 277.056 342.332 276.864 342.444 276.64C342.556 276.416 342.668 276.16 342.78 275.872L343.476 274.072L338.748 262.624ZM364.892 264.496H361.796V269.656C361.796 269.976 361.804 270.296 361.82 270.616C361.836 270.92 361.892 271.2 361.988 271.456C362.1 271.696 362.26 271.896 362.468 272.056C362.692 272.2 363.012 272.272 363.428 272.272C363.684 272.272 363.948 272.248 364.22 272.2C364.492 272.152 364.74 272.064 364.964 271.936V273.904C364.708 274.048 364.372 274.144 363.956 274.192C363.556 274.256 363.244 274.288 363.02 274.288C362.188 274.288 361.54 274.176 361.076 273.952C360.628 273.712 360.292 273.408 360.068 273.04C359.86 272.672 359.732 272.264 359.684 271.816C359.652 271.352 359.636 270.888 359.636 270.424V264.496H357.14V262.624H359.636V259.432H361.796V262.624H364.892V264.496ZM369.431 268.312C369.431 268.888 369.519 269.424 369.695 269.92C369.871 270.4 370.119 270.816 370.439 271.168C370.759 271.504 371.151 271.776 371.615 271.984C372.079 272.176 372.599 272.272 373.175 272.272C373.751 272.272 374.271 272.176 374.735 271.984C375.199 271.776 375.591 271.504 375.911 271.168C376.231 270.816 376.479 270.4 376.655 269.92C376.831 269.424 376.919 268.888 376.919 268.312C376.919 267.736 376.831 267.208 376.655 266.728C376.479 266.232 376.231 265.816 375.911 265.48C375.591 265.128 375.199 264.856 374.735 264.664C374.271 264.456 373.751 264.352 373.175 264.352C372.599 264.352 372.079 264.456 371.615 264.664C371.151 264.856 370.759 265.128 370.439 265.48C370.119 265.816 369.871 266.232 369.695 266.728C369.519 267.208 369.431 267.736 369.431 268.312ZM367.127 268.312C367.127 267.48 367.279 266.704 367.583 265.984C367.903 265.264 368.335 264.632 368.879 264.088C369.423 263.544 370.063 263.12 370.799 262.816C371.535 262.496 372.327 262.336 373.175 262.336C374.023 262.336 374.815 262.496 375.551 262.816C376.287 263.12 376.927 263.544 377.471 264.088C378.015 264.632 378.439 265.264 378.743 265.984C379.063 266.704 379.223 267.48 379.223 268.312C379.223 269.144 379.063 269.928 378.743 270.664C378.439 271.384 378.015 272.016 377.471 272.56C376.927 273.088 376.287 273.512 375.551 273.832C374.815 274.136 374.023 274.288 373.175 274.288C372.327 274.288 371.535 274.136 370.799 273.832C370.063 273.512 369.423 273.088 368.879 272.56C368.335 272.016 367.903 271.384 367.583 270.664C367.279 269.928 367.127 269.144 367.127 268.312ZM388.609 262.624H390.769V264.256H390.817C391.233 263.648 391.801 263.176 392.521 262.84C393.257 262.504 394.009 262.336 394.777 262.336C395.657 262.336 396.449 262.488 397.153 262.792C397.873 263.096 398.481 263.52 398.977 264.064C399.489 264.608 399.881 265.248 400.153 265.984C400.425 266.704 400.561 267.48 400.561 268.312C400.561 269.16 400.425 269.952 400.153 270.688C399.881 271.408 399.489 272.04 398.977 272.584C398.481 273.112 397.873 273.528 397.153 273.832C396.449 274.136 395.657 274.288 394.777 274.288C393.961 274.288 393.193 274.12 392.473 273.784C391.753 273.432 391.201 272.96 390.817 272.368H390.769V280.768H388.609V262.624ZM394.513 264.352C393.937 264.352 393.417 264.456 392.953 264.664C392.489 264.856 392.097 265.128 391.777 265.48C391.457 265.816 391.209 266.232 391.033 266.728C390.857 267.208 390.769 267.736 390.769 268.312C390.769 268.888 390.857 269.424 391.033 269.92C391.209 270.4 391.457 270.816 391.777 271.168C392.097 271.504 392.489 271.776 392.953 271.984C393.417 272.176 393.937 272.272 394.513 272.272C395.089 272.272 395.609 272.176 396.073 271.984C396.537 271.776 396.929 271.504 397.249 271.168C397.569 270.816 397.817 270.4 397.993 269.92C398.169 269.424 398.257 268.888 398.257 268.312C398.257 267.736 398.169 267.208 397.993 266.728C397.817 266.232 397.569 265.816 397.249 265.48C396.929 265.128 396.537 264.856 396.073 264.664C395.609 264.456 395.089 264.352 394.513 264.352ZM413.36 274H411.2V272.248H411.152C410.88 272.856 410.408 273.352 409.736 273.736C409.064 274.104 408.288 274.288 407.408 274.288C406.848 274.288 406.32 274.2 405.824 274.024C405.328 273.864 404.888 273.608 404.504 273.256C404.136 272.904 403.84 272.456 403.616 271.912C403.392 271.352 403.28 270.696 403.28 269.944V262.624H405.44V269.344C405.44 269.872 405.512 270.328 405.656 270.712C405.8 271.08 405.992 271.384 406.232 271.624C406.472 271.848 406.744 272.016 407.048 272.128C407.368 272.224 407.696 272.272 408.032 272.272C408.48 272.272 408.896 272.2 409.28 272.056C409.664 271.912 410 271.688 410.288 271.384C410.576 271.064 410.8 270.664 410.96 270.184C411.12 269.704 411.2 269.136 411.2 268.48V262.624H413.36V274ZM416.616 255.856H418.776V264.256H418.824C419.208 263.664 419.76 263.2 420.48 262.864C421.2 262.512 421.968 262.336 422.784 262.336C423.664 262.336 424.456 262.488 425.16 262.792C425.88 263.096 426.488 263.52 426.984 264.064C427.496 264.592 427.888 265.224 428.16 265.96C428.432 266.68 428.568 267.464 428.568 268.312C428.568 269.16 428.432 269.944 428.16 270.664C427.888 271.384 427.496 272.016 426.984 272.56C426.488 273.104 425.88 273.528 425.16 273.832C424.456 274.136 423.664 274.288 422.784 274.288C422.016 274.288 421.264 274.12 420.528 273.784C419.808 273.448 419.24 272.976 418.824 272.368H418.776V274H416.616V255.856ZM422.52 272.272C423.096 272.272 423.616 272.176 424.08 271.984C424.544 271.776 424.936 271.504 425.256 271.168C425.576 270.816 425.824 270.4 426 269.92C426.176 269.424 426.264 268.888 426.264 268.312C426.264 267.736 426.176 267.208 426 266.728C425.824 266.232 425.576 265.816 425.256 265.48C424.936 265.128 424.544 264.856 424.08 264.664C423.616 264.456 423.096 264.352 422.52 264.352C421.944 264.352 421.424 264.456 420.96 264.664C420.496 264.856 420.104 265.128 419.784 265.48C419.464 265.816 419.216 266.232 419.04 266.728C418.864 267.208 418.776 267.736 418.776 268.312C418.776 268.888 418.864 269.424 419.04 269.92C419.216 270.4 419.464 270.816 419.784 271.168C420.104 271.504 420.496 271.776 420.96 271.984C421.424 272.176 421.944 272.272 422.52 272.272ZM431.456 255.856H433.616V274H431.456V255.856ZM437.222 262.624H439.382V274H437.222V262.624ZM436.718 258.544C436.718 258.112 436.87 257.744 437.174 257.44C437.494 257.12 437.87 256.96 438.302 256.96C438.734 256.96 439.102 257.12 439.406 257.44C439.726 257.744 439.886 258.112 439.886 258.544C439.886 258.976 439.726 259.352 439.406 259.672C439.102 259.976 438.734 260.128 438.302 260.128C437.87 260.128 437.494 259.976 437.174 259.672C436.87 259.352 436.718 258.976 436.718 258.544ZM448.868 265.48C448.612 265.16 448.292 264.896 447.908 264.688C447.539 264.464 447.084 264.352 446.54 264.352C446.028 264.352 445.58 264.464 445.196 264.688C444.828 264.896 444.644 265.208 444.644 265.624C444.644 265.96 444.748 266.232 444.956 266.44C445.18 266.648 445.436 266.816 445.724 266.944C446.028 267.072 446.348 267.168 446.684 267.232C447.02 267.296 447.308 267.352 447.548 267.4C448.012 267.512 448.444 267.648 448.844 267.808C449.26 267.968 449.612 268.176 449.9 268.432C450.204 268.688 450.436 269 450.596 269.368C450.772 269.736 450.86 270.184 450.86 270.712C450.86 271.352 450.724 271.904 450.452 272.368C450.18 272.816 449.828 273.184 449.396 273.472C448.964 273.76 448.468 273.968 447.908 274.096C447.364 274.224 446.812 274.288 446.252 274.288C445.308 274.288 444.476 274.144 443.756 273.856C443.052 273.568 442.42 273.04 441.86 272.272L443.492 270.928C443.844 271.28 444.236 271.592 444.668 271.864C445.1 272.136 445.628 272.272 446.252 272.272C446.524 272.272 446.796 272.248 447.068 272.2C447.356 272.136 447.604 272.048 447.812 271.936C448.036 271.808 448.212 271.656 448.34 271.48C448.484 271.288 448.556 271.072 448.556 270.832C448.556 270.512 448.452 270.248 448.243 270.04C448.052 269.832 447.812 269.672 447.523 269.56C447.252 269.432 446.956 269.336 446.636 269.272C446.332 269.192 446.06 269.128 445.82 269.08C445.356 268.968 444.916 268.84 444.5 268.696C444.084 268.552 443.716 268.36 443.396 268.12C443.076 267.88 442.82 267.576 442.628 267.208C442.436 266.84 442.34 266.384 442.34 265.84C442.34 265.248 442.46 264.736 442.7 264.304C442.956 263.856 443.284 263.488 443.684 263.2C444.1 262.912 444.564 262.696 445.076 262.552C445.604 262.408 446.132 262.336 446.66 262.336C447.428 262.336 448.164 262.48 448.868 262.768C449.572 263.056 450.132 263.536 450.548 264.208L448.868 265.48ZM453.484 255.856H455.644V264.376H455.692C455.964 263.768 456.436 263.28 457.108 262.912C457.78 262.528 458.556 262.336 459.436 262.336C459.98 262.336 460.5 262.424 460.996 262.6C461.508 262.76 461.948 263.016 462.316 263.368C462.7 263.72 463.004 264.176 463.228 264.736C463.452 265.28 463.564 265.928 463.564 266.68V274H461.404V267.28C461.404 266.752 461.332 266.304 461.188 265.936C461.044 265.552 460.852 265.248 460.612 265.024C460.372 264.784 460.092 264.616 459.772 264.52C459.468 264.408 459.148 264.352 458.812 264.352C458.364 264.352 457.948 264.424 457.564 264.568C457.18 264.712 456.844 264.944 456.556 265.264C456.268 265.568 456.044 265.96 455.884 266.44C455.724 266.92 455.644 267.488 455.644 268.144V274H453.484V255.856ZM468.524 265.648C468.092 265.648 467.716 265.496 467.396 265.192C467.092 264.872 466.94 264.496 466.94 264.064C466.94 263.632 467.092 263.264 467.396 262.96C467.716 262.64 468.092 262.48 468.524 262.48C468.956 262.48 469.324 262.64 469.628 262.96C469.948 263.264 470.108 263.632 470.108 264.064C470.108 264.496 469.948 264.872 469.628 265.192C469.324 265.496 468.956 265.648 468.524 265.648ZM466.94 272.56C466.94 272.128 467.092 271.76 467.396 271.456C467.716 271.136 468.092 270.976 468.524 270.976C468.956 270.976 469.324 271.136 469.628 271.456C469.948 271.76 470.108 272.128 470.108 272.56C470.108 272.992 469.948 273.368 469.628 273.688C469.324 273.992 468.956 274.144 468.524 274.144C468.092 274.144 467.716 273.992 467.396 273.688C467.092 273.368 466.94 272.992 466.94 272.56Z" fill="black"/>
<path d="M219.512 316.008H221.6L228.872 333H226.184L224.48 328.8H216.392L214.712 333H212.024L219.512 316.008ZM223.64 326.784L220.472 318.984H220.424L217.208 326.784H223.64ZM238.666 324.648C238.266 324.232 237.842 323.92 237.394 323.712C236.962 323.488 236.442 323.376 235.834 323.376C235.242 323.376 234.722 323.488 234.274 323.712C233.842 323.92 233.474 324.216 233.17 324.6C232.882 324.968 232.658 325.4 232.498 325.896C232.354 326.376 232.282 326.88 232.282 327.408C232.282 327.936 232.37 328.44 232.546 328.92C232.722 329.384 232.97 329.792 233.29 330.144C233.61 330.496 233.994 330.776 234.442 330.984C234.89 331.176 235.394 331.272 235.954 331.272C236.562 331.272 237.082 331.168 237.514 330.96C237.946 330.736 238.346 330.416 238.714 330L240.25 331.536C239.69 332.16 239.034 332.608 238.282 332.88C237.546 333.152 236.762 333.288 235.93 333.288C235.05 333.288 234.242 333.144 233.506 332.856C232.786 332.568 232.162 332.168 231.634 331.656C231.106 331.128 230.698 330.504 230.41 329.784C230.122 329.048 229.978 328.24 229.978 327.36C229.978 326.48 230.122 325.672 230.41 324.936C230.698 324.2 231.098 323.568 231.61 323.04C232.138 322.512 232.762 322.104 233.482 321.816C234.218 321.512 235.034 321.36 235.93 321.36C236.762 321.36 237.554 321.512 238.306 321.816C239.074 322.104 239.738 322.552 240.298 323.16L238.666 324.648ZM250.245 324.648C249.845 324.232 249.421 323.92 248.973 323.712C248.541 323.488 248.021 323.376 247.413 323.376C246.821 323.376 246.301 323.488 245.853 323.712C245.421 323.92 245.053 324.216 244.749 324.6C244.461 324.968 244.237 325.4 244.077 325.896C243.933 326.376 243.861 326.88 243.861 327.408C243.861 327.936 243.949 328.44 244.125 328.92C244.301 329.384 244.549 329.792 244.869 330.144C245.189 330.496 245.573 330.776 246.021 330.984C246.469 331.176 246.973 331.272 247.533 331.272C248.141 331.272 248.661 331.168 249.093 330.96C249.525 330.736 249.925 330.416 250.293 330L251.829 331.536C251.269 332.16 250.613 332.608 249.861 332.88C249.125 333.152 248.341 333.288 247.509 333.288C246.629 333.288 245.821 333.144 245.085 332.856C244.365 332.568 243.741 332.168 243.213 331.656C242.685 331.128 242.277 330.504 241.989 329.784C241.701 329.048 241.557 328.24 241.557 327.36C241.557 326.48 241.701 325.672 241.989 324.936C242.277 324.2 242.677 323.568 243.189 323.04C243.717 322.512 244.341 322.104 245.061 321.816C245.797 321.512 246.613 321.36 247.509 321.36C248.341 321.36 249.133 321.512 249.885 321.816C250.653 322.104 251.317 322.552 251.877 323.16L250.245 324.648ZM263.767 333H261.607V331.248H261.559C261.287 331.856 260.815 332.352 260.143 332.736C259.471 333.104 258.695 333.288 257.815 333.288C257.255 333.288 256.727 333.2 256.231 333.024C255.735 332.864 255.295 332.608 254.911 332.256C254.543 331.904 254.247 331.456 254.023 330.912C253.799 330.352 253.687 329.696 253.687 328.944V321.624H255.847V328.344C255.847 328.872 255.919 329.328 256.063 329.712C256.207 330.08 256.399 330.384 256.639 330.624C256.879 330.848 257.151 331.016 257.455 331.128C257.775 331.224 258.103 331.272 258.439 331.272C258.887 331.272 259.303 331.2 259.687 331.056C260.071 330.912 260.407 330.688 260.695 330.384C260.983 330.064 261.207 329.664 261.367 329.184C261.527 328.704 261.607 328.136 261.607 327.48V321.624H263.767V333ZM267.023 321.624H269.183V323.376H269.231C269.375 323.072 269.567 322.8 269.807 322.56C270.047 322.304 270.311 322.088 270.599 321.912C270.903 321.736 271.231 321.6 271.583 321.504C271.935 321.392 272.287 321.336 272.639 321.336C272.991 321.336 273.311 321.384 273.599 321.48L273.503 323.808C273.327 323.76 273.151 323.72 272.975 323.688C272.799 323.656 272.623 323.64 272.447 323.64C271.391 323.64 270.583 323.936 270.023 324.528C269.463 325.12 269.183 326.04 269.183 327.288V333H267.023V321.624ZM275.953 323.016C276.561 322.456 277.265 322.04 278.065 321.768C278.865 321.48 279.665 321.336 280.465 321.336C281.297 321.336 282.009 321.44 282.601 321.648C283.209 321.856 283.705 322.136 284.089 322.488C284.473 322.84 284.753 323.248 284.929 323.712C285.121 324.16 285.217 324.632 285.217 325.128V330.936C285.217 331.336 285.225 331.704 285.241 332.04C285.257 332.376 285.281 332.696 285.313 333H283.393C283.345 332.424 283.321 331.848 283.321 331.272H283.273C282.793 332.008 282.225 332.528 281.569 332.832C280.913 333.136 280.153 333.288 279.289 333.288C278.761 333.288 278.257 333.216 277.777 333.072C277.297 332.928 276.873 332.712 276.505 332.424C276.153 332.136 275.873 331.784 275.665 331.368C275.457 330.936 275.353 330.44 275.353 329.88C275.353 329.144 275.513 328.528 275.833 328.032C276.169 327.536 276.617 327.136 277.177 326.832C277.753 326.512 278.417 326.288 279.169 326.16C279.937 326.016 280.753 325.944 281.617 325.944H283.201V325.464C283.201 325.176 283.145 324.888 283.033 324.6C282.921 324.312 282.753 324.056 282.529 323.832C282.305 323.592 282.025 323.408 281.689 323.28C281.353 323.136 280.953 323.064 280.489 323.064C280.073 323.064 279.705 323.104 279.385 323.184C279.081 323.264 278.801 323.368 278.545 323.496C278.289 323.608 278.057 323.744 277.849 323.904C277.641 324.064 277.441 324.216 277.249 324.36L275.953 323.016ZM282.049 327.528C281.537 327.528 281.009 327.56 280.465 327.624C279.937 327.672 279.449 327.776 279.001 327.936C278.569 328.096 278.209 328.32 277.921 328.608C277.649 328.896 277.513 329.264 277.513 329.712C277.513 330.368 277.729 330.84 278.161 331.128C278.609 331.416 279.209 331.56 279.961 331.56C280.553 331.56 281.057 331.464 281.473 331.272C281.889 331.064 282.225 330.8 282.481 330.48C282.737 330.16 282.921 329.808 283.033 329.424C283.145 329.024 283.201 328.632 283.201 328.248V327.528H282.049ZM296.487 324.648C296.087 324.232 295.663 323.92 295.215 323.712C294.783 323.488 294.263 323.376 293.655 323.376C293.063 323.376 292.543 323.488 292.095 323.712C291.663 323.92 291.295 324.216 290.991 324.6C290.703 324.968 290.479 325.4 290.319 325.896C290.175 326.376 290.103 326.88 290.103 327.408C290.103 327.936 290.191 328.44 290.367 328.92C290.543 329.384 290.791 329.792 291.111 330.144C291.431 330.496 291.815 330.776 292.263 330.984C292.711 331.176 293.215 331.272 293.775 331.272C294.383 331.272 294.903 331.168 295.335 330.96C295.767 330.736 296.167 330.416 296.535 330L298.071 331.536C297.511 332.16 296.855 332.608 296.103 332.88C295.367 333.152 294.583 333.288 293.751 333.288C292.871 333.288 292.063 333.144 291.327 332.856C290.607 332.568 289.983 332.168 289.455 331.656C288.927 331.128 288.519 330.504 288.231 329.784C287.943 329.048 287.799 328.24 287.799 327.36C287.799 326.48 287.943 325.672 288.231 324.936C288.519 324.2 288.919 323.568 289.431 323.04C289.959 322.512 290.583 322.104 291.303 321.816C292.039 321.512 292.855 321.36 293.751 321.36C294.583 321.36 295.375 321.512 296.127 321.816C296.895 322.104 297.559 322.552 298.119 323.16L296.487 324.648ZM298.561 321.624H301.057L304.441 330.504H304.489L307.705 321.624H310.033L304.633 335.448C304.441 335.944 304.241 336.392 304.033 336.792C303.825 337.208 303.577 337.56 303.289 337.848C303.001 338.136 302.649 338.36 302.233 338.52C301.833 338.68 301.337 338.76 300.745 338.76C300.425 338.76 300.097 338.736 299.761 338.688C299.441 338.656 299.129 338.576 298.825 338.448L299.089 336.48C299.521 336.656 299.953 336.744 300.385 336.744C300.721 336.744 301.001 336.696 301.225 336.6C301.465 336.52 301.665 336.392 301.825 336.216C302.001 336.056 302.145 335.864 302.257 335.64C302.369 335.416 302.481 335.16 302.593 334.872L303.289 333.072L298.561 321.624ZM320.361 327.312C320.361 327.888 320.449 328.424 320.625 328.92C320.801 329.4 321.049 329.816 321.369 330.168C321.689 330.504 322.081 330.776 322.545 330.984C323.009 331.176 323.529 331.272 324.105 331.272C324.681 331.272 325.201 331.176 325.665 330.984C326.129 330.776 326.521 330.504 326.841 330.168C327.161 329.816 327.409 329.4 327.585 328.92C327.761 328.424 327.849 327.888 327.849 327.312C327.849 326.736 327.761 326.208 327.585 325.728C327.409 325.232 327.161 324.816 326.841 324.48C326.521 324.128 326.129 323.856 325.665 323.664C325.201 323.456 324.681 323.352 324.105 323.352C323.529 323.352 323.009 323.456 322.545 323.664C322.081 323.856 321.689 324.128 321.369 324.48C321.049 324.816 320.801 325.232 320.625 325.728C320.449 326.208 320.361 326.736 320.361 327.312ZM318.057 327.312C318.057 326.48 318.209 325.704 318.513 324.984C318.833 324.264 319.265 323.632 319.809 323.088C320.353 322.544 320.993 322.12 321.729 321.816C322.465 321.496 323.257 321.336 324.105 321.336C324.953 321.336 325.745 321.496 326.481 321.816C327.217 322.12 327.857 322.544 328.401 323.088C328.945 323.632 329.369 324.264 329.673 324.984C329.993 325.704 330.153 326.48 330.153 327.312C330.153 328.144 329.993 328.928 329.673 329.664C329.369 330.384 328.945 331.016 328.401 331.56C327.857 332.088 327.217 332.512 326.481 332.832C325.745 333.136 324.953 333.288 324.105 333.288C323.257 333.288 322.465 333.136 321.729 332.832C320.993 332.512 320.353 332.088 319.809 331.56C319.265 331.016 318.833 330.384 318.513 329.664C318.209 328.928 318.057 328.144 318.057 327.312ZM333.699 323.496H331.251V321.624H333.699V319.08C333.699 317.56 333.987 316.432 334.563 315.696C335.155 314.944 336.163 314.568 337.587 314.568C337.827 314.568 338.075 314.576 338.331 314.592C338.603 314.608 338.891 314.656 339.195 314.736L338.955 316.656C338.747 316.576 338.547 316.52 338.355 316.488C338.163 316.456 337.955 316.44 337.731 316.44C337.331 316.44 337.011 316.504 336.771 316.632C336.531 316.744 336.339 316.912 336.195 317.136C336.067 317.36 335.979 317.632 335.931 317.952C335.899 318.256 335.883 318.608 335.883 319.008V321.624H338.451V323.496H335.859V333H333.699V323.496ZM353.626 323.496H350.53V328.656C350.53 328.976 350.538 329.296 350.554 329.616C350.57 329.92 350.626 330.2 350.722 330.456C350.834 330.696 350.994 330.896 351.202 331.056C351.426 331.2 351.746 331.272 352.162 331.272C352.418 331.272 352.682 331.248 352.954 331.2C353.226 331.152 353.474 331.064 353.698 330.936V332.904C353.442 333.048 353.106 333.144 352.69 333.192C352.29 333.256 351.978 333.288 351.754 333.288C350.922 333.288 350.274 333.176 349.81 332.952C349.362 332.712 349.026 332.408 348.802 332.04C348.594 331.672 348.466 331.264 348.418 330.816C348.386 330.352 348.37 329.888 348.37 329.424V323.496H345.874V321.624H348.37V318.432H350.53V321.624H353.626V323.496ZM356.413 314.856H358.573V323.376H358.621C358.893 322.768 359.365 322.28 360.037 321.912C360.709 321.528 361.485 321.336 362.365 321.336C362.909 321.336 363.429 321.424 363.925 321.6C364.437 321.76 364.877 322.016 365.245 322.368C365.629 322.72 365.933 323.176 366.157 323.736C366.381 324.28 366.493 324.928 366.493 325.68V333H364.333V326.28C364.333 325.752 364.261 325.304 364.117 324.936C363.973 324.552 363.781 324.248 363.541 324.024C363.301 323.784 363.021 323.616 362.701 323.52C362.397 323.408 362.077 323.352 361.741 323.352C361.293 323.352 360.877 323.424 360.493 323.568C360.109 323.712 359.773 323.944 359.485 324.264C359.197 324.568 358.973 324.96 358.813 325.44C358.653 325.92 358.573 326.488 358.573 327.144V333H356.413V314.856ZM369.917 321.624H372.077V333H369.917V321.624ZM369.413 317.544C369.413 317.112 369.565 316.744 369.869 316.44C370.189 316.12 370.565 315.96 370.997 315.96C371.429 315.96 371.797 316.12 372.101 316.44C372.421 316.744 372.581 317.112 372.581 317.544C372.581 317.976 372.421 318.352 372.101 318.672C371.797 318.976 371.429 319.128 370.997 319.128C370.565 319.128 370.189 318.976 369.869 318.672C369.565 318.352 369.413 317.976 369.413 317.544ZM381.563 324.48C381.307 324.16 380.987 323.896 380.603 323.688C380.235 323.464 379.779 323.352 379.235 323.352C378.723 323.352 378.275 323.464 377.891 323.688C377.523 323.896 377.339 324.208 377.339 324.624C377.339 324.96 377.443 325.232 377.651 325.44C377.875 325.648 378.131 325.816 378.419 325.944C378.723 326.072 379.043 326.168 379.379 326.232C379.715 326.296 380.003 326.352 380.243 326.4C380.707 326.512 381.139 326.648 381.539 326.808C381.955 326.968 382.307 327.176 382.595 327.432C382.899 327.688 383.131 328 383.291 328.368C383.467 328.736 383.555 329.184 383.555 329.712C383.555 330.352 383.419 330.904 383.147 331.368C382.875 331.816 382.523 332.184 382.091 332.472C381.659 332.76 381.163 332.968 380.603 333.096C380.059 333.224 379.507 333.288 378.947 333.288C378.003 333.288 377.171 333.144 376.451 332.856C375.747 332.568 375.115 332.04 374.555 331.272L376.187 329.928C376.539 330.28 376.931 330.592 377.363 330.864C377.795 331.136 378.323 331.272 378.947 331.272C379.219 331.272 379.491 331.248 379.763 331.2C380.051 331.136 380.299 331.048 380.507 330.936C380.731 330.808 380.907 330.656 381.035 330.48C381.179 330.288 381.251 330.072 381.251 329.832C381.251 329.512 381.147 329.248 380.939 329.04C380.747 328.832 380.507 328.672 380.219 328.56C379.947 328.432 379.651 328.336 379.331 328.272C379.027 328.192 378.755 328.128 378.515 328.08C378.051 327.968 377.611 327.84 377.195 327.696C376.779 327.552 376.411 327.36 376.091 327.12C375.771 326.88 375.515 326.576 375.323 326.208C375.131 325.84 375.035 325.384 375.035 324.84C375.035 324.248 375.155 323.736 375.395 323.304C375.651 322.856 375.979 322.488 376.379 322.2C376.795 321.912 377.259 321.696 377.771 321.552C378.299 321.408 378.827 321.336 379.355 321.336C380.123 321.336 380.859 321.48 381.563 321.768C382.267 322.056 382.827 322.536 383.243 323.208L381.563 324.48ZM398.955 323.496H395.859V328.656C395.859 328.976 395.867 329.296 395.883 329.616C395.899 329.92 395.955 330.2 396.051 330.456C396.163 330.696 396.323 330.896 396.531 331.056C396.755 331.2 397.075 331.272 397.491 331.272C397.747 331.272 398.011 331.248 398.283 331.2C398.555 331.152 398.803 331.064 399.027 330.936V332.904C398.771 333.048 398.435 333.144 398.019 333.192C397.619 333.256 397.307 333.288 397.083 333.288C396.251 333.288 395.603 333.176 395.139 332.952C394.691 332.712 394.355 332.408 394.131 332.04C393.923 331.672 393.795 331.264 393.747 330.816C393.715 330.352 393.699 329.888 393.699 329.424V323.496H391.203V321.624H393.699V318.432H395.859V321.624H398.955V323.496ZM403.373 328.104C403.373 328.6 403.477 329.056 403.685 329.472C403.909 329.872 404.197 330.216 404.549 330.504C404.901 330.792 405.309 331.016 405.773 331.176C406.237 331.336 406.717 331.416 407.213 331.416C407.885 331.416 408.469 331.264 408.965 330.96C409.461 330.64 409.917 330.224 410.333 329.712L411.965 330.96C410.765 332.512 409.085 333.288 406.925 333.288C406.029 333.288 405.213 333.136 404.477 332.832C403.757 332.528 403.141 332.112 402.629 331.584C402.133 331.04 401.749 330.408 401.477 329.688C401.205 328.952 401.069 328.16 401.069 327.312C401.069 326.464 401.213 325.68 401.501 324.96C401.805 324.224 402.213 323.592 402.725 323.064C403.253 322.52 403.877 322.096 404.597 321.792C405.317 321.488 406.101 321.336 406.949 321.336C407.957 321.336 408.805 321.512 409.493 321.864C410.197 322.216 410.773 322.68 411.221 323.256C411.669 323.816 411.989 324.456 412.181 325.176C412.389 325.88 412.493 326.6 412.493 327.336V328.104H403.373ZM410.189 326.376C410.173 325.896 410.093 325.456 409.949 325.056C409.821 324.656 409.621 324.312 409.349 324.024C409.077 323.72 408.733 323.488 408.317 323.328C407.917 323.152 407.445 323.064 406.901 323.064C406.373 323.064 405.885 323.168 405.437 323.376C405.005 323.568 404.637 323.824 404.333 324.144C404.029 324.464 403.789 324.824 403.613 325.224C403.453 325.608 403.373 325.992 403.373 326.376H410.189ZM421.125 324.48C420.869 324.16 420.549 323.896 420.165 323.688C419.797 323.464 419.341 323.352 418.797 323.352C418.285 323.352 417.837 323.464 417.453 323.688C417.085 323.896 416.901 324.208 416.901 324.624C416.901 324.96 417.005 325.232 417.213 325.44C417.437 325.648 417.693 325.816 417.981 325.944C418.285 326.072 418.605 326.168 418.941 326.232C419.277 326.296 419.565 326.352 419.805 326.4C420.269 326.512 420.701 326.648 421.101 326.808C421.517 326.968 421.869 327.176 422.157 327.432C422.461 327.688 422.693 328 422.853 328.368C423.029 328.736 423.117 329.184 423.117 329.712C423.117 330.352 422.981 330.904 422.709 331.368C422.437 331.816 422.085 332.184 421.653 332.472C421.221 332.76 420.725 332.968 420.165 333.096C419.621 333.224 419.069 333.288 418.509 333.288C417.565 333.288 416.733 333.144 416.013 332.856C415.309 332.568 414.677 332.04 414.117 331.272L415.749 329.928C416.101 330.28 416.493 330.592 416.925 330.864C417.357 331.136 417.885 331.272 418.509 331.272C418.781 331.272 419.053 331.248 419.325 331.2C419.613 331.136 419.861 331.048 420.069 330.936C420.293 330.808 420.469 330.656 420.597 330.48C420.741 330.288 420.813 330.072 420.813 329.832C420.813 329.512 420.709 329.248 420.501 329.04C420.309 328.832 420.069 328.672 419.781 328.56C419.509 328.432 419.213 328.336 418.893 328.272C418.589 328.192 418.317 328.128 418.077 328.08C417.613 327.968 417.173 327.84 416.757 327.696C416.341 327.552 415.973 327.36 415.653 327.12C415.333 326.88 415.077 326.576 414.885 326.208C414.693 325.84 414.597 325.384 414.597 324.84C414.597 324.248 414.717 323.736 414.957 323.304C415.213 322.856 415.541 322.488 415.941 322.2C416.357 321.912 416.821 321.696 417.333 321.552C417.861 321.408 418.389 321.336 418.917 321.336C419.685 321.336 420.421 321.48 421.125 321.768C421.829 322.056 422.389 322.536 422.805 323.208L421.125 324.48ZM431.837 323.496H428.741V328.656C428.741 328.976 428.749 329.296 428.765 329.616C428.781 329.92 428.837 330.2 428.933 330.456C429.045 330.696 429.205 330.896 429.413 331.056C429.637 331.2 429.957 331.272 430.373 331.272C430.629 331.272 430.893 331.248 431.165 331.2C431.437 331.152 431.685 331.064 431.909 330.936V332.904C431.653 333.048 431.317 333.144 430.901 333.192C430.501 333.256 430.189 333.288 429.965 333.288C429.133 333.288 428.485 333.176 428.021 332.952C427.573 332.712 427.237 332.408 427.013 332.04C426.805 331.672 426.677 331.264 426.629 330.816C426.597 330.352 426.581 329.888 426.581 329.424V323.496H424.085V321.624H426.581V318.432H428.741V321.624H431.837V323.496Z" fill="black"/>
<path d="M641.445 256.208C641.018 255.589 640.442 255.141 639.717 254.864C639.013 254.565 638.266 254.416 637.477 254.416C637.007 254.416 636.549 254.469 636.101 254.576C635.674 254.683 635.279 254.853 634.917 255.088C634.575 255.323 634.298 255.632 634.085 256.016C633.871 256.379 633.765 256.816 633.765 257.328C633.765 258.096 634.031 258.683 634.565 259.088C635.098 259.493 635.759 259.845 636.549 260.144C637.338 260.443 638.202 260.731 639.141 261.008C640.079 261.285 640.943 261.669 641.733 262.16C642.522 262.651 643.183 263.301 643.717 264.112C644.25 264.923 644.517 266 644.517 267.344C644.517 268.56 644.293 269.627 643.845 270.544C643.397 271.44 642.789 272.187 642.021 272.784C641.274 273.381 640.399 273.829 639.397 274.128C638.394 274.427 637.338 274.576 636.229 274.576C634.821 274.576 633.466 274.341 632.165 273.872C630.863 273.403 629.743 272.613 628.805 271.504L631.845 268.56C632.335 269.307 632.975 269.893 633.765 270.32C634.575 270.725 635.429 270.928 636.325 270.928C636.794 270.928 637.263 270.864 637.733 270.736C638.202 270.608 638.629 270.416 639.013 270.16C639.397 269.904 639.706 269.584 639.941 269.2C640.175 268.795 640.293 268.336 640.293 267.824C640.293 266.992 640.026 266.352 639.493 265.904C638.959 265.456 638.298 265.083 637.509 264.784C636.719 264.464 635.855 264.165 634.917 263.888C633.978 263.611 633.114 263.237 632.325 262.768C631.535 262.277 630.874 261.637 630.341 260.848C629.807 260.037 629.541 258.96 629.541 257.616C629.541 256.443 629.775 255.429 630.245 254.576C630.735 253.723 631.365 253.019 632.133 252.464C632.922 251.888 633.818 251.461 634.821 251.184C635.823 250.907 636.847 250.768 637.893 250.768C639.087 250.768 640.239 250.949 641.349 251.312C642.479 251.675 643.493 252.272 644.389 253.104L641.445 256.208ZM657.964 271.888H657.868C657.313 272.763 656.609 273.403 655.756 273.808C654.902 274.192 653.964 274.384 652.94 274.384C652.236 274.384 651.542 274.288 650.86 274.096C650.198 273.904 649.601 273.616 649.068 273.232C648.556 272.848 648.14 272.368 647.82 271.792C647.5 271.216 647.34 270.544 647.34 269.776C647.34 268.944 647.489 268.24 647.788 267.664C648.086 267.067 648.481 266.576 648.972 266.192C649.484 265.787 650.07 265.467 650.732 265.232C651.393 264.997 652.076 264.827 652.78 264.72C653.505 264.592 654.23 264.517 654.956 264.496C655.681 264.453 656.364 264.432 657.004 264.432H657.964V264.016C657.964 263.056 657.633 262.341 656.972 261.872C656.31 261.381 655.468 261.136 654.444 261.136C653.633 261.136 652.876 261.285 652.172 261.584C651.468 261.861 650.86 262.245 650.348 262.736L648.332 260.72C649.185 259.845 650.177 259.216 651.308 258.832C652.46 258.448 653.644 258.256 654.86 258.256C655.948 258.256 656.865 258.384 657.612 258.64C658.358 258.875 658.977 259.184 659.468 259.568C659.958 259.952 660.332 260.4 660.588 260.912C660.865 261.403 661.057 261.904 661.164 262.416C661.292 262.928 661.366 263.429 661.388 263.92C661.409 264.389 661.42 264.805 661.42 265.168V274H657.964V271.888ZM657.74 267.12H656.94C656.406 267.12 655.809 267.141 655.148 267.184C654.486 267.227 653.857 267.333 653.26 267.504C652.684 267.653 652.193 267.888 651.788 268.208C651.382 268.507 651.18 268.933 651.18 269.488C651.18 269.851 651.254 270.16 651.404 270.416C651.574 270.651 651.788 270.853 652.044 271.024C652.3 271.195 652.588 271.323 652.908 271.408C653.228 271.472 653.548 271.504 653.868 271.504C655.19 271.504 656.161 271.195 656.78 270.576C657.42 269.936 657.74 269.072 657.74 267.984V267.12ZM663.759 261.904V258.64H666.927V254.192H670.767V258.64H674.991V261.904H670.767V268.624C670.767 269.392 670.906 270 671.183 270.448C671.482 270.896 672.058 271.12 672.911 271.12C673.252 271.12 673.626 271.088 674.031 271.024C674.436 270.939 674.756 270.811 674.991 270.64V273.872C674.586 274.064 674.084 274.192 673.487 274.256C672.911 274.341 672.399 274.384 671.951 274.384C670.927 274.384 670.084 274.267 669.423 274.032C668.783 273.819 668.271 273.488 667.887 273.04C667.524 272.571 667.268 271.995 667.119 271.312C666.991 270.629 666.927 269.84 666.927 268.944V261.904H663.759ZM692.005 274H688.357V271.536H688.293C687.93 272.304 687.375 272.976 686.629 273.552C685.882 274.107 684.869 274.384 683.589 274.384C682.565 274.384 681.69 274.224 680.965 273.904C680.261 273.563 679.685 273.115 679.237 272.56C678.789 271.984 678.469 271.333 678.277 270.608C678.085 269.883 677.989 269.125 677.989 268.336V258.64H681.829V266.416C681.829 266.843 681.85 267.323 681.893 267.856C681.935 268.368 682.042 268.859 682.213 269.328C682.405 269.776 682.682 270.16 683.045 270.48C683.429 270.779 683.962 270.928 684.645 270.928C685.285 270.928 685.818 270.821 686.245 270.608C686.693 270.395 687.055 270.107 687.333 269.744C687.631 269.381 687.845 268.965 687.973 268.496C688.101 268.027 688.165 267.536 688.165 267.024V258.64H692.005V274ZM696.364 258.64H700.204V261.072H700.268C700.694 260.176 701.302 259.483 702.092 258.992C702.881 258.501 703.788 258.256 704.812 258.256C705.046 258.256 705.27 258.277 705.484 258.32C705.718 258.363 705.953 258.416 706.188 258.48V262.192C705.868 262.107 705.548 262.043 705.228 262C704.929 261.936 704.63 261.904 704.332 261.904C703.436 261.904 702.71 262.075 702.156 262.416C701.622 262.736 701.206 263.109 700.908 263.536C700.63 263.963 700.438 264.389 700.332 264.816C700.246 265.243 700.204 265.563 700.204 265.776V274H696.364V258.64ZM720.399 271.696H720.335C719.78 272.635 719.033 273.317 718.095 273.744C717.156 274.171 716.143 274.384 715.055 274.384C713.86 274.384 712.793 274.181 711.855 273.776C710.937 273.349 710.148 272.773 709.487 272.048C708.825 271.323 708.324 270.469 707.983 269.488C707.641 268.507 707.471 267.451 707.471 266.32C707.471 265.189 707.652 264.133 708.015 263.152C708.377 262.171 708.879 261.317 709.519 260.592C710.18 259.867 710.969 259.301 711.887 258.896C712.804 258.469 713.807 258.256 714.895 258.256C715.62 258.256 716.26 258.331 716.815 258.48C717.369 258.629 717.86 258.821 718.287 259.056C718.713 259.291 719.076 259.547 719.375 259.824C719.673 260.08 719.919 260.336 720.111 260.592H720.207V249.808H724.047V274H720.399V271.696ZM711.311 266.32C711.311 266.917 711.407 267.493 711.599 268.048C711.812 268.603 712.111 269.093 712.495 269.52C712.9 269.947 713.38 270.288 713.935 270.544C714.489 270.8 715.119 270.928 715.823 270.928C716.527 270.928 717.156 270.8 717.711 270.544C718.265 270.288 718.735 269.947 719.119 269.52C719.524 269.093 719.823 268.603 720.015 268.048C720.228 267.493 720.335 266.917 720.335 266.32C720.335 265.723 720.228 265.147 720.015 264.592C719.823 264.037 719.524 263.547 719.119 263.12C718.735 262.693 718.265 262.352 717.711 262.096C717.156 261.84 716.527 261.712 715.823 261.712C715.119 261.712 714.489 261.84 713.935 262.096C713.38 262.352 712.9 262.693 712.495 263.12C712.111 263.547 711.812 264.037 711.599 264.592C711.407 265.147 711.311 265.723 711.311 266.32ZM737.995 271.888H737.899C737.344 272.763 736.64 273.403 735.787 273.808C734.933 274.192 733.995 274.384 732.971 274.384C732.267 274.384 731.573 274.288 730.891 274.096C730.229 273.904 729.632 273.616 729.099 273.232C728.587 272.848 728.171 272.368 727.851 271.792C727.531 271.216 727.371 270.544 727.371 269.776C727.371 268.944 727.52 268.24 727.819 267.664C728.117 267.067 728.512 266.576 729.003 266.192C729.515 265.787 730.101 265.467 730.763 265.232C731.424 264.997 732.107 264.827 732.811 264.72C733.536 264.592 734.261 264.517 734.987 264.496C735.712 264.453 736.395 264.432 737.035 264.432H737.995V264.016C737.995 263.056 737.664 262.341 737.003 261.872C736.341 261.381 735.499 261.136 734.475 261.136C733.664 261.136 732.907 261.285 732.203 261.584C731.499 261.861 730.891 262.245 730.379 262.736L728.363 260.72C729.216 259.845 730.208 259.216 731.339 258.832C732.491 258.448 733.675 258.256 734.891 258.256C735.979 258.256 736.896 258.384 737.643 258.64C738.389 258.875 739.008 259.184 739.499 259.568C739.989 259.952 740.363 260.4 740.619 260.912C740.896 261.403 741.088 261.904 741.195 262.416C741.323 262.928 741.397 263.429 741.419 263.92C741.44 264.389 741.451 264.805 741.451 265.168V274H737.995V271.888ZM737.771 267.12H736.971C736.437 267.12 735.84 267.141 735.179 267.184C734.517 267.227 733.888 267.333 733.291 267.504C732.715 267.653 732.224 267.888 731.819 268.208C731.413 268.507 731.211 268.933 731.211 269.488C731.211 269.851 731.285 270.16 731.435 270.416C731.605 270.651 731.819 270.853 732.075 271.024C732.331 271.195 732.619 271.323 732.939 271.408C733.259 271.472 733.579 271.504 733.899 271.504C735.221 271.504 736.192 271.195 736.811 270.576C737.451 269.936 737.771 269.072 737.771 267.984V267.12ZM743.502 258.64H747.726L752.014 269.296H752.078L755.918 258.64H759.918L752.654 277.296C752.377 278.021 752.068 278.651 751.726 279.184C751.406 279.739 751.022 280.197 750.574 280.56C750.126 280.944 749.593 281.221 748.974 281.392C748.377 281.584 747.652 281.68 746.798 281.68C745.796 281.68 744.814 281.552 743.854 281.296L744.334 277.84C744.633 277.947 744.942 278.032 745.262 278.096C745.604 278.181 745.945 278.224 746.286 278.224C746.756 278.224 747.15 278.181 747.47 278.096C747.79 278.011 748.057 277.872 748.27 277.68C748.505 277.509 748.697 277.275 748.846 276.976C748.996 276.699 749.156 276.357 749.326 275.952L750.062 274.128L743.502 258.64Z" fill="#26AE5C"/>
<path d="M707.078 309.344L701.638 317.728L701.702 317.792C701.936 317.664 702.246 317.568 702.63 317.504C703.035 317.44 703.43 317.408 703.814 317.408C704.816 317.408 705.734 317.6 706.566 317.984C707.398 318.368 708.112 318.891 708.71 319.552C709.328 320.213 709.798 320.981 710.118 321.856C710.459 322.731 710.63 323.659 710.63 324.64C710.63 325.813 710.427 326.88 710.022 327.84C709.616 328.8 709.051 329.621 708.326 330.304C707.622 330.965 706.768 331.477 705.766 331.84C704.784 332.203 703.718 332.384 702.566 332.384C701.371 332.384 700.283 332.213 699.302 331.872C698.32 331.509 697.467 330.997 696.742 330.336C696.038 329.675 695.483 328.864 695.078 327.904C694.694 326.944 694.502 325.867 694.502 324.672C694.502 323.477 694.694 322.4 695.078 321.44C695.483 320.459 695.995 319.467 696.614 318.464L702.406 309.344H707.078ZM698.534 324.608C698.534 325.184 698.64 325.728 698.854 326.24C699.067 326.731 699.355 327.168 699.718 327.552C700.102 327.915 700.539 328.203 701.03 328.416C701.542 328.629 702.086 328.736 702.662 328.736C703.238 328.736 703.771 328.629 704.262 328.416C704.774 328.203 705.211 327.915 705.574 327.552C705.958 327.168 706.256 326.731 706.47 326.24C706.683 325.728 706.79 325.184 706.79 324.608C706.79 324.032 706.683 323.499 706.47 323.008C706.256 322.496 705.958 322.059 705.574 321.696C705.211 321.312 704.774 321.013 704.262 320.8C703.771 320.587 703.238 320.48 702.662 320.48C702.086 320.48 701.542 320.587 701.03 320.8C700.539 321.013 700.102 321.312 699.718 321.696C699.355 322.059 699.067 322.496 698.854 323.008C698.64 323.499 698.534 324.032 698.534 324.608ZM713.311 320.672C713.311 318.88 713.45 317.355 713.727 316.096C714.026 314.816 714.41 313.749 714.879 312.896C715.349 312.021 715.871 311.328 716.447 310.816C717.045 310.283 717.642 309.888 718.239 309.632C718.858 309.355 719.445 309.173 719.999 309.088C720.575 309.003 721.077 308.96 721.503 308.96C721.93 308.96 722.421 309.003 722.975 309.088C723.551 309.173 724.138 309.355 724.735 309.632C725.354 309.888 725.951 310.283 726.527 310.816C727.125 311.328 727.658 312.021 728.127 312.896C728.597 313.749 728.97 314.816 729.247 316.096C729.546 317.355 729.695 318.88 729.695 320.672C729.695 322.464 729.546 324 729.247 325.28C728.97 326.539 728.597 327.605 728.127 328.48C727.658 329.333 727.125 330.027 726.527 330.56C725.951 331.072 725.354 331.467 724.735 331.744C724.138 332 723.551 332.171 722.975 332.256C722.421 332.341 721.93 332.384 721.503 332.384C721.077 332.384 720.575 332.341 719.999 332.256C719.445 332.171 718.858 332 718.239 331.744C717.642 331.467 717.045 331.072 716.447 330.56C715.871 330.027 715.349 329.333 714.879 328.48C714.41 327.605 714.026 326.539 713.727 325.28C713.45 324 713.311 322.464 713.311 320.672ZM717.151 320.672C717.151 321.376 717.194 322.197 717.279 323.136C717.386 324.053 717.589 324.928 717.887 325.76C718.186 326.592 718.623 327.296 719.199 327.872C719.775 328.448 720.543 328.736 721.503 328.736C722.463 328.736 723.231 328.448 723.807 327.872C724.383 327.296 724.821 326.592 725.119 325.76C725.418 324.928 725.61 324.053 725.695 323.136C725.802 322.197 725.855 321.376 725.855 320.672C725.855 319.968 725.802 319.157 725.695 318.24C725.61 317.301 725.418 316.416 725.119 315.584C724.821 314.752 724.383 314.048 723.807 313.472C723.231 312.896 722.463 312.608 721.503 312.608C720.543 312.608 719.775 312.896 719.199 313.472C718.623 314.048 718.186 314.752 717.887 315.584C717.589 316.416 717.386 317.301 717.279 318.24C717.194 319.157 717.151 319.968 717.151 320.672ZM747.129 326.432C747.129 325.6 747.278 324.832 747.577 324.128C747.897 323.403 748.323 322.773 748.857 322.24C749.411 321.685 750.041 321.259 750.745 320.96C751.47 320.64 752.249 320.48 753.081 320.48C753.913 320.48 754.681 320.64 755.385 320.96C756.11 321.259 756.739 321.685 757.273 322.24C757.827 322.773 758.254 323.403 758.553 324.128C758.873 324.832 759.033 325.6 759.033 326.432C759.033 327.264 758.873 328.043 758.553 328.768C758.254 329.472 757.827 330.101 757.273 330.656C756.739 331.189 756.11 331.616 755.385 331.936C754.681 332.235 753.913 332.384 753.081 332.384C752.249 332.384 751.47 332.235 750.745 331.936C750.041 331.616 749.411 331.189 748.857 330.656C748.323 330.101 747.897 329.472 747.577 328.768C747.278 328.043 747.129 327.264 747.129 326.432ZM755.961 326.432C755.961 325.621 755.683 324.939 755.129 324.384C754.574 323.829 753.891 323.552 753.081 323.552C752.27 323.552 751.587 323.829 751.033 324.384C750.478 324.939 750.201 325.621 750.201 326.432C750.201 327.243 750.478 327.925 751.033 328.48C751.587 329.035 752.27 329.312 753.081 329.312C753.891 329.312 754.574 329.035 755.129 328.48C755.683 327.925 755.961 327.243 755.961 326.432ZM731.929 314.912C731.929 314.08 732.078 313.312 732.377 312.608C732.697 311.883 733.123 311.253 733.657 310.72C734.211 310.165 734.841 309.739 735.545 309.44C736.27 309.12 737.049 308.96 737.881 308.96C738.713 308.96 739.481 309.12 740.185 309.44C740.91 309.739 741.539 310.165 742.073 310.72C742.627 311.253 743.054 311.883 743.353 312.608C743.673 313.312 743.833 314.08 743.833 314.912C743.833 315.744 743.673 316.523 743.353 317.248C743.054 317.952 742.627 318.581 742.073 319.136C741.539 319.669 740.91 320.096 740.185 320.416C739.481 320.715 738.713 320.864 737.881 320.864C737.049 320.864 736.27 320.715 735.545 320.416C734.841 320.096 734.211 319.669 733.657 319.136C733.123 318.581 732.697 317.952 732.377 317.248C732.078 316.523 731.929 315.744 731.929 314.912ZM740.761 314.912C740.761 314.101 740.483 313.419 739.929 312.864C739.374 312.309 738.691 312.032 737.881 312.032C737.07 312.032 736.387 312.309 735.833 312.864C735.278 313.419 735.001 314.101 735.001 314.912C735.001 315.723 735.278 316.405 735.833 316.96C736.387 317.515 737.07 317.792 737.881 317.792C738.691 317.792 739.374 317.515 739.929 316.96C740.483 316.405 740.761 315.723 740.761 314.912ZM750.841 308.32L753.497 309.536L740.185 333.024L737.529 331.808L750.841 308.32Z" fill="#26AE5C"/>
<path d="M31.9753 130.64H27.4153V128.84H38.4553V130.64H33.8953V143H31.9753V130.64ZM40.1797 133.52H41.9797V143H40.1797V133.52ZM39.7597 130.12C39.7597 129.76 39.8864 129.453 40.1397 129.2C40.4064 128.933 40.7197 128.8 41.0797 128.8C41.4397 128.8 41.7464 128.933 41.9997 129.2C42.2664 129.453 42.3997 129.76 42.3997 130.12C42.3997 130.48 42.2664 130.793 41.9997 131.06C41.7464 131.313 41.4397 131.44 41.0797 131.44C40.7197 131.44 40.4064 131.313 40.1397 131.06C39.8864 130.793 39.7597 130.48 39.7597 130.12ZM49.9244 135.08H47.3444V139.38C47.3444 139.647 47.351 139.913 47.3644 140.18C47.3777 140.433 47.4244 140.667 47.5044 140.88C47.5977 141.08 47.731 141.247 47.9044 141.38C48.091 141.5 48.3577 141.56 48.7044 141.56C48.9177 141.56 49.1377 141.54 49.3644 141.5C49.591 141.46 49.7977 141.387 49.9844 141.28V142.92C49.771 143.04 49.491 143.12 49.1444 143.16C48.811 143.213 48.551 143.24 48.3644 143.24C47.671 143.24 47.131 143.147 46.7444 142.96C46.371 142.76 46.091 142.507 45.9044 142.2C45.731 141.893 45.6244 141.553 45.5844 141.18C45.5577 140.793 45.5444 140.407 45.5444 140.02V135.08H43.4644V133.52H45.5444V130.86H47.3444V133.52H49.9244V135.08ZM52.3867 127.88H54.1867V143H52.3867V127.88ZM58.4114 138.92C58.4114 139.333 58.4981 139.713 58.6714 140.06C58.8581 140.393 59.0981 140.68 59.3914 140.92C59.6847 141.16 60.0247 141.347 60.4114 141.48C60.7981 141.613 61.1981 141.68 61.6114 141.68C62.1714 141.68 62.6581 141.553 63.0714 141.3C63.4847 141.033 63.8647 140.687 64.2114 140.26L65.5714 141.3C64.5714 142.593 63.1714 143.24 61.3714 143.24C60.6247 143.24 59.9447 143.113 59.3314 142.86C58.7314 142.607 58.2181 142.26 57.7914 141.82C57.3781 141.367 57.0581 140.84 56.8314 140.24C56.6047 139.627 56.4914 138.967 56.4914 138.26C56.4914 137.553 56.6114 136.9 56.8514 136.3C57.1047 135.687 57.4447 135.16 57.8714 134.72C58.3114 134.267 58.8314 133.913 59.4314 133.66C60.0314 133.407 60.6847 133.28 61.3914 133.28C62.2314 133.28 62.9381 133.427 63.5114 133.72C64.0981 134.013 64.5781 134.4 64.9514 134.88C65.3247 135.347 65.5914 135.88 65.7514 136.48C65.9247 137.067 66.0114 137.667 66.0114 138.28V138.92H58.4114ZM64.0914 137.48C64.0781 137.08 64.0114 136.713 63.8914 136.38C63.7847 136.047 63.6181 135.76 63.3914 135.52C63.1647 135.267 62.8781 135.073 62.5314 134.94C62.1981 134.793 61.8047 134.72 61.3514 134.72C60.9114 134.72 60.5047 134.807 60.1314 134.98C59.7714 135.14 59.4647 135.353 59.2114 135.62C58.9581 135.887 58.7581 136.187 58.6114 136.52C58.4781 136.84 58.4114 137.16 58.4114 137.48H64.0914Z" fill="black"/>
<path d="M197.97 127.84H202.89C203.504 127.84 204.07 127.913 204.59 128.06C205.124 128.207 205.577 128.427 205.95 128.72C206.337 129 206.637 129.367 206.85 129.82C207.077 130.26 207.19 130.78 207.19 131.38C207.19 132.193 206.964 132.86 206.51 133.38C206.057 133.887 205.47 134.26 204.75 134.5V134.54C205.177 134.567 205.577 134.68 205.95 134.88C206.324 135.067 206.644 135.32 206.91 135.64C207.19 135.947 207.41 136.307 207.57 136.72C207.73 137.133 207.81 137.58 207.81 138.06C207.81 138.7 207.677 139.267 207.41 139.76C207.157 140.24 206.804 140.647 206.35 140.98C205.897 141.313 205.37 141.567 204.77 141.74C204.17 141.913 203.524 142 202.83 142H197.97V127.84ZM199.89 133.72H202.51C202.87 133.72 203.21 133.687 203.53 133.62C203.85 133.54 204.13 133.413 204.37 133.24C204.61 133.067 204.797 132.847 204.93 132.58C205.077 132.313 205.15 131.987 205.15 131.6C205.15 131.04 204.97 130.553 204.61 130.14C204.25 129.727 203.684 129.52 202.91 129.52H199.89V133.72ZM199.89 140.32H202.71C203.004 140.32 203.324 140.293 203.67 140.24C204.03 140.173 204.364 140.053 204.67 139.88C204.977 139.693 205.237 139.447 205.45 139.14C205.664 138.833 205.77 138.427 205.77 137.92C205.77 137.08 205.497 136.453 204.95 136.04C204.404 135.613 203.664 135.4 202.73 135.4H199.89V140.32ZM211.568 137.26C211.568 137.74 211.641 138.187 211.788 138.6C211.935 139 212.141 139.347 212.408 139.64C212.675 139.92 213.001 140.147 213.388 140.32C213.775 140.48 214.208 140.56 214.688 140.56C215.168 140.56 215.601 140.48 215.988 140.32C216.375 140.147 216.701 139.92 216.968 139.64C217.235 139.347 217.441 139 217.588 138.6C217.735 138.187 217.808 137.74 217.808 137.26C217.808 136.78 217.735 136.34 217.588 135.94C217.441 135.527 217.235 135.18 216.968 134.9C216.701 134.607 216.375 134.38 215.988 134.22C215.601 134.047 215.168 133.96 214.688 133.96C214.208 133.96 213.775 134.047 213.388 134.22C213.001 134.38 212.675 134.607 212.408 134.9C212.141 135.18 211.935 135.527 211.788 135.94C211.641 136.34 211.568 136.78 211.568 137.26ZM209.648 137.26C209.648 136.567 209.775 135.92 210.028 135.32C210.295 134.72 210.655 134.193 211.108 133.74C211.561 133.287 212.095 132.933 212.708 132.68C213.321 132.413 213.981 132.28 214.688 132.28C215.395 132.28 216.055 132.413 216.668 132.68C217.281 132.933 217.815 133.287 218.268 133.74C218.721 134.193 219.075 134.72 219.328 135.32C219.595 135.92 219.728 136.567 219.728 137.26C219.728 137.953 219.595 138.607 219.328 139.22C219.075 139.82 218.721 140.347 218.268 140.8C217.815 141.24 217.281 141.593 216.668 141.86C216.055 142.113 215.395 142.24 214.688 142.24C213.981 142.24 213.321 142.113 212.708 141.86C212.095 141.593 211.561 141.24 211.108 140.8C210.655 140.347 210.295 139.82 210.028 139.22C209.775 138.607 209.648 137.953 209.648 137.26ZM231.483 142H229.683V140.64H229.643C229.296 141.147 228.816 141.54 228.203 141.82C227.603 142.1 226.983 142.24 226.343 142.24C225.61 142.24 224.943 142.113 224.343 141.86C223.756 141.607 223.25 141.253 222.823 140.8C222.41 140.347 222.09 139.82 221.863 139.22C221.636 138.62 221.523 137.967 221.523 137.26C221.523 136.553 221.636 135.9 221.863 135.3C222.09 134.687 222.41 134.16 222.823 133.72C223.25 133.267 223.756 132.913 224.343 132.66C224.943 132.407 225.61 132.28 226.343 132.28C227.023 132.28 227.663 132.427 228.263 132.72C228.863 133 229.323 133.387 229.643 133.88H229.683V126.88H231.483V142ZM226.563 140.56C227.043 140.56 227.476 140.48 227.863 140.32C228.25 140.147 228.576 139.92 228.843 139.64C229.11 139.347 229.316 139 229.463 138.6C229.61 138.187 229.683 137.74 229.683 137.26C229.683 136.78 229.61 136.34 229.463 135.94C229.316 135.527 229.11 135.18 228.843 134.9C228.576 134.607 228.25 134.38 227.863 134.22C227.476 134.047 227.043 133.96 226.563 133.96C226.083 133.96 225.65 134.047 225.263 134.22C224.876 134.38 224.55 134.607 224.283 134.9C224.016 135.18 223.81 135.527 223.663 135.94C223.516 136.34 223.443 136.78 223.443 137.26C223.443 137.74 223.516 138.187 223.663 138.6C223.81 139 224.016 139.347 224.283 139.64C224.55 139.92 224.876 140.147 225.263 140.32C225.65 140.48 226.083 140.56 226.563 140.56ZM233.07 132.52H235.15L237.97 139.92H238.01L240.69 132.52H242.63L238.13 144.04C237.97 144.453 237.803 144.827 237.63 145.16C237.456 145.507 237.25 145.8 237.01 146.04C236.77 146.28 236.476 146.467 236.13 146.6C235.796 146.733 235.383 146.8 234.89 146.8C234.623 146.8 234.35 146.78 234.07 146.74C233.803 146.713 233.543 146.647 233.29 146.54L233.51 144.9C233.87 145.047 234.23 145.12 234.59 145.12C234.87 145.12 235.103 145.08 235.29 145C235.49 144.933 235.656 144.827 235.79 144.68C235.936 144.547 236.056 144.387 236.15 144.2C236.243 144.013 236.336 143.8 236.43 143.56L237.01 142.06L233.07 132.52Z" fill="black"/>
<path d="M366.944 130.9C366.544 130.38 366.037 129.98 365.424 129.7C364.81 129.42 364.177 129.28 363.524 129.28C362.724 129.28 361.997 129.433 361.344 129.74C360.704 130.033 360.15 130.44 359.684 130.96C359.23 131.48 358.877 132.093 358.624 132.8C358.37 133.493 358.244 134.24 358.244 135.04C358.244 135.787 358.364 136.493 358.604 137.16C358.844 137.827 359.19 138.413 359.644 138.92C360.097 139.427 360.65 139.827 361.304 140.12C361.957 140.413 362.697 140.56 363.524 140.56C364.337 140.56 365.05 140.393 365.664 140.06C366.277 139.727 366.797 139.26 367.224 138.66L368.844 139.88C368.737 140.027 368.55 140.24 368.284 140.52C368.017 140.787 367.664 141.06 367.224 141.34C366.784 141.607 366.25 141.84 365.624 142.04C365.01 142.253 364.297 142.36 363.484 142.36C362.364 142.36 361.35 142.147 360.444 141.72C359.55 141.293 358.784 140.733 358.144 140.04C357.517 139.347 357.037 138.567 356.704 137.7C356.37 136.82 356.204 135.933 356.204 135.04C356.204 133.947 356.384 132.94 356.744 132.02C357.104 131.087 357.604 130.287 358.244 129.62C358.897 128.94 359.677 128.413 360.584 128.04C361.49 127.667 362.49 127.48 363.584 127.48C364.517 127.48 365.43 127.66 366.324 128.02C367.23 128.38 367.97 128.933 368.544 129.68L366.944 130.9ZM370.746 133.68C371.252 133.213 371.839 132.867 372.506 132.64C373.172 132.4 373.839 132.28 374.506 132.28C375.199 132.28 375.792 132.367 376.286 132.54C376.792 132.713 377.206 132.947 377.526 133.24C377.846 133.533 378.079 133.873 378.226 134.26C378.386 134.633 378.466 135.027 378.466 135.44V140.28C378.466 140.613 378.472 140.92 378.486 141.2C378.499 141.48 378.519 141.747 378.546 142H376.946C376.906 141.52 376.886 141.04 376.886 140.56H376.846C376.446 141.173 375.972 141.607 375.426 141.86C374.879 142.113 374.246 142.24 373.526 142.24C373.086 142.24 372.666 142.18 372.266 142.06C371.866 141.94 371.512 141.76 371.206 141.52C370.912 141.28 370.679 140.987 370.506 140.64C370.332 140.28 370.246 139.867 370.246 139.4C370.246 138.787 370.379 138.273 370.646 137.86C370.926 137.447 371.299 137.113 371.766 136.86C372.246 136.593 372.799 136.407 373.426 136.3C374.066 136.18 374.746 136.12 375.466 136.12H376.786V135.72C376.786 135.48 376.739 135.24 376.646 135C376.552 134.76 376.412 134.547 376.226 134.36C376.039 134.16 375.806 134.007 375.526 133.9C375.246 133.78 374.912 133.72 374.526 133.72C374.179 133.72 373.872 133.753 373.606 133.82C373.352 133.887 373.119 133.973 372.906 134.08C372.692 134.173 372.499 134.287 372.326 134.42C372.152 134.553 371.986 134.68 371.826 134.8L370.746 133.68ZM375.826 137.44C375.399 137.44 374.959 137.467 374.506 137.52C374.066 137.56 373.659 137.647 373.286 137.78C372.926 137.913 372.626 138.1 372.386 138.34C372.159 138.58 372.046 138.887 372.046 139.26C372.046 139.807 372.226 140.2 372.586 140.44C372.959 140.68 373.459 140.8 374.086 140.8C374.579 140.8 374.999 140.72 375.346 140.56C375.692 140.387 375.972 140.167 376.186 139.9C376.399 139.633 376.552 139.34 376.646 139.02C376.739 138.687 376.786 138.36 376.786 138.04V137.44H375.826ZM386.157 134.08H383.577V138.38C383.577 138.647 383.583 138.913 383.597 139.18C383.61 139.433 383.657 139.667 383.737 139.88C383.83 140.08 383.963 140.247 384.137 140.38C384.323 140.5 384.59 140.56 384.937 140.56C385.15 140.56 385.37 140.54 385.597 140.5C385.823 140.46 386.03 140.387 386.217 140.28V141.92C386.003 142.04 385.723 142.12 385.377 142.16C385.043 142.213 384.783 142.24 384.597 142.24C383.903 142.24 383.363 142.147 382.977 141.96C382.603 141.76 382.323 141.507 382.137 141.2C381.963 140.893 381.857 140.553 381.817 140.18C381.79 139.793 381.777 139.407 381.777 139.02V134.08H379.697V132.52H381.777V129.86H383.577V132.52H386.157V134.08ZM389.839 137.92C389.839 138.333 389.926 138.713 390.099 139.06C390.286 139.393 390.526 139.68 390.819 139.92C391.112 140.16 391.452 140.347 391.839 140.48C392.226 140.613 392.626 140.68 393.039 140.68C393.599 140.68 394.086 140.553 394.499 140.3C394.912 140.033 395.292 139.687 395.639 139.26L396.999 140.3C395.999 141.593 394.599 142.24 392.799 142.24C392.052 142.24 391.372 142.113 390.759 141.86C390.159 141.607 389.646 141.26 389.219 140.82C388.806 140.367 388.486 139.84 388.259 139.24C388.032 138.627 387.919 137.967 387.919 137.26C387.919 136.553 388.039 135.9 388.279 135.3C388.532 134.687 388.872 134.16 389.299 133.72C389.739 133.267 390.259 132.913 390.859 132.66C391.459 132.407 392.112 132.28 392.819 132.28C393.659 132.28 394.366 132.427 394.939 132.72C395.526 133.013 396.006 133.4 396.379 133.88C396.752 134.347 397.019 134.88 397.179 135.48C397.352 136.067 397.439 136.667 397.439 137.28V137.92H389.839ZM395.519 136.48C395.506 136.08 395.439 135.713 395.319 135.38C395.212 135.047 395.046 134.76 394.819 134.52C394.592 134.267 394.306 134.073 393.959 133.94C393.626 133.793 393.232 133.72 392.779 133.72C392.339 133.72 391.932 133.807 391.559 133.98C391.199 134.14 390.892 134.353 390.639 134.62C390.386 134.887 390.186 135.187 390.039 135.52C389.906 135.84 389.839 136.16 389.839 136.48H395.519ZM409.092 141.92C409.092 142.64 408.966 143.293 408.712 143.88C408.472 144.48 408.126 144.993 407.672 145.42C407.219 145.86 406.672 146.2 406.032 146.44C405.392 146.68 404.686 146.8 403.912 146.8C403.006 146.8 402.172 146.673 401.412 146.42C400.666 146.167 399.952 145.727 399.272 145.1L400.492 143.58C400.959 144.087 401.466 144.467 402.012 144.72C402.559 144.987 403.179 145.12 403.872 145.12C404.539 145.12 405.092 145.02 405.532 144.82C405.972 144.633 406.319 144.387 406.572 144.08C406.839 143.773 407.026 143.42 407.132 143.02C407.239 142.633 407.292 142.24 407.292 141.84V140.44H407.232C406.886 141.013 406.412 141.44 405.812 141.72C405.226 141.987 404.606 142.12 403.952 142.12C403.259 142.12 402.612 142 402.012 141.76C401.426 141.507 400.919 141.167 400.492 140.74C400.066 140.3 399.732 139.787 399.492 139.2C399.252 138.6 399.132 137.953 399.132 137.26C399.132 136.567 399.246 135.92 399.472 135.32C399.699 134.707 400.019 134.173 400.432 133.72C400.859 133.267 401.366 132.913 401.952 132.66C402.552 132.407 403.219 132.28 403.952 132.28C404.592 132.28 405.212 132.42 405.812 132.7C406.426 132.98 406.906 133.373 407.252 133.88H407.292V132.52H409.092V141.92ZM404.172 133.96C403.692 133.96 403.259 134.047 402.872 134.22C402.486 134.38 402.159 134.607 401.892 134.9C401.626 135.18 401.419 135.527 401.272 135.94C401.126 136.34 401.052 136.78 401.052 137.26C401.052 138.22 401.332 138.993 401.892 139.58C402.452 140.153 403.212 140.44 404.172 140.44C405.132 140.44 405.892 140.153 406.452 139.58C407.012 138.993 407.292 138.22 407.292 137.26C407.292 136.78 407.219 136.34 407.072 135.94C406.926 135.527 406.719 135.18 406.452 134.9C406.186 134.607 405.859 134.38 405.472 134.22C405.086 134.047 404.652 133.96 404.172 133.96ZM413.279 137.26C413.279 137.74 413.352 138.187 413.499 138.6C413.646 139 413.852 139.347 414.119 139.64C414.386 139.92 414.712 140.147 415.099 140.32C415.486 140.48 415.919 140.56 416.399 140.56C416.879 140.56 417.312 140.48 417.699 140.32C418.086 140.147 418.412 139.92 418.679 139.64C418.946 139.347 419.152 139 419.299 138.6C419.446 138.187 419.519 137.74 419.519 137.26C419.519 136.78 419.446 136.34 419.299 135.94C419.152 135.527 418.946 135.18 418.679 134.9C418.412 134.607 418.086 134.38 417.699 134.22C417.312 134.047 416.879 133.96 416.399 133.96C415.919 133.96 415.486 134.047 415.099 134.22C414.712 134.38 414.386 134.607 414.119 134.9C413.852 135.18 413.646 135.527 413.499 135.94C413.352 136.34 413.279 136.78 413.279 137.26ZM411.359 137.26C411.359 136.567 411.486 135.92 411.739 135.32C412.006 134.72 412.366 134.193 412.819 133.74C413.272 133.287 413.806 132.933 414.419 132.68C415.032 132.413 415.692 132.28 416.399 132.28C417.106 132.28 417.766 132.413 418.379 132.68C418.992 132.933 419.526 133.287 419.979 133.74C420.432 134.193 420.786 134.72 421.039 135.32C421.306 135.92 421.439 136.567 421.439 137.26C421.439 137.953 421.306 138.607 421.039 139.22C420.786 139.82 420.432 140.347 419.979 140.8C419.526 141.24 418.992 141.593 418.379 141.86C417.766 142.113 417.106 142.24 416.399 142.24C415.692 142.24 415.032 142.113 414.419 141.86C413.806 141.593 413.272 141.24 412.819 140.8C412.366 140.347 412.006 139.82 411.739 139.22C411.486 138.607 411.359 137.953 411.359 137.26ZM423.694 132.52H425.494V133.98H425.534C425.654 133.727 425.814 133.5 426.014 133.3C426.214 133.087 426.434 132.907 426.674 132.76C426.927 132.613 427.201 132.5 427.494 132.42C427.787 132.327 428.081 132.28 428.374 132.28C428.667 132.28 428.934 132.32 429.174 132.4L429.094 134.34C428.947 134.3 428.801 134.267 428.654 134.24C428.507 134.213 428.361 134.2 428.214 134.2C427.334 134.2 426.661 134.447 426.194 134.94C425.727 135.433 425.494 136.2 425.494 137.24V142H423.694V132.52ZM429.956 132.52H432.036L434.856 139.92H434.896L437.576 132.52H439.516L435.016 144.04C434.856 144.453 434.69 144.827 434.516 145.16C434.343 145.507 434.136 145.8 433.896 146.04C433.656 146.28 433.363 146.467 433.016 146.6C432.683 146.733 432.27 146.8 431.776 146.8C431.51 146.8 431.236 146.78 430.956 146.74C430.69 146.713 430.43 146.647 430.176 146.54L430.396 144.9C430.756 145.047 431.116 145.12 431.476 145.12C431.756 145.12 431.99 145.08 432.176 145C432.376 144.933 432.543 144.827 432.676 144.68C432.823 144.547 432.943 144.387 433.036 144.2C433.13 144.013 433.223 143.8 433.316 143.56L433.896 142.06L429.956 132.52Z" fill="black"/>
<path d="M529.736 137.92H527.836V136.36H529.956L530.356 133.48H528.456V131.92H530.576L531.136 127.84H532.716L532.156 131.92H534.476L535.036 127.84H536.616L536.056 131.92H537.956V133.48H535.836L535.436 136.36H537.336V137.92H535.216L534.656 142H533.076L533.636 137.92H531.316L530.756 142H529.176L529.736 137.92ZM531.936 133.48L531.536 136.36H533.856L534.256 133.48H531.936ZM546.836 137.26C546.836 137.74 546.909 138.187 547.056 138.6C547.202 139 547.409 139.347 547.676 139.64C547.942 139.92 548.269 140.147 548.656 140.32C549.042 140.48 549.476 140.56 549.956 140.56C550.436 140.56 550.869 140.48 551.256 140.32C551.642 140.147 551.969 139.92 552.236 139.64C552.502 139.347 552.709 139 552.856 138.6C553.002 138.187 553.076 137.74 553.076 137.26C553.076 136.78 553.002 136.34 552.856 135.94C552.709 135.527 552.502 135.18 552.236 134.9C551.969 134.607 551.642 134.38 551.256 134.22C550.869 134.047 550.436 133.96 549.956 133.96C549.476 133.96 549.042 134.047 548.656 134.22C548.269 134.38 547.942 134.607 547.676 134.9C547.409 135.18 547.202 135.527 547.056 135.94C546.909 136.34 546.836 136.78 546.836 137.26ZM544.916 137.26C544.916 136.567 545.042 135.92 545.296 135.32C545.562 134.72 545.922 134.193 546.376 133.74C546.829 133.287 547.362 132.933 547.976 132.68C548.589 132.413 549.249 132.28 549.956 132.28C550.662 132.28 551.322 132.413 551.936 132.68C552.549 132.933 553.082 133.287 553.536 133.74C553.989 134.193 554.342 134.72 554.596 135.32C554.862 135.92 554.996 136.567 554.996 137.26C554.996 137.953 554.862 138.607 554.596 139.22C554.342 139.82 553.989 140.347 553.536 140.8C553.082 141.24 552.549 141.593 551.936 141.86C551.322 142.113 550.662 142.24 549.956 142.24C549.249 142.24 548.589 142.113 547.976 141.86C547.362 141.593 546.829 141.24 546.376 140.8C545.922 140.347 545.562 139.82 545.296 139.22C545.042 138.607 544.916 137.953 544.916 137.26ZM557.951 134.08H555.911V132.52H557.951V130.4C557.951 129.133 558.191 128.193 558.671 127.58C559.164 126.953 560.004 126.64 561.191 126.64C561.391 126.64 561.597 126.647 561.811 126.66C562.037 126.673 562.277 126.713 562.531 126.78L562.331 128.38C562.157 128.313 561.991 128.267 561.831 128.24C561.671 128.213 561.497 128.2 561.311 128.2C560.977 128.2 560.711 128.253 560.511 128.36C560.311 128.453 560.151 128.593 560.031 128.78C559.924 128.967 559.851 129.193 559.811 129.46C559.784 129.713 559.771 130.007 559.771 130.34V132.52H561.911V134.08H559.751V142H557.951V134.08ZM569.937 127.84H571.857V140.2H578.357V142H569.937V127.84ZM579.988 132.52H581.788V142H579.988V132.52ZM579.568 129.12C579.568 128.76 579.695 128.453 579.948 128.2C580.215 127.933 580.528 127.8 580.888 127.8C581.248 127.8 581.555 127.933 581.808 128.2C582.075 128.453 582.208 128.76 582.208 129.12C582.208 129.48 582.075 129.793 581.808 130.06C581.555 130.313 581.248 130.44 580.888 130.44C580.528 130.44 580.215 130.313 579.948 130.06C579.695 129.793 579.568 129.48 579.568 129.12ZM584.653 132.52H586.453V133.98H586.493C586.72 133.473 587.113 133.067 587.673 132.76C588.233 132.44 588.88 132.28 589.613 132.28C590.066 132.28 590.5 132.353 590.913 132.5C591.34 132.633 591.706 132.847 592.013 133.14C592.333 133.433 592.586 133.813 592.773 134.28C592.96 134.733 593.053 135.273 593.053 135.9V142H591.253V136.4C591.253 135.96 591.193 135.587 591.073 135.28C590.953 134.96 590.793 134.707 590.593 134.52C590.393 134.32 590.16 134.18 589.893 134.1C589.64 134.007 589.373 133.96 589.093 133.96C588.72 133.96 588.373 134.02 588.053 134.14C587.733 134.26 587.453 134.453 587.213 134.72C586.973 134.973 586.786 135.3 586.653 135.7C586.52 136.1 586.453 136.573 586.453 137.12V142H584.653V132.52ZM595.766 126.88H597.566V136.64L601.646 132.54H604.146L599.726 136.84L604.526 142H601.966L597.566 137.08V142H595.766V126.88ZM611.177 134.9C610.964 134.633 610.697 134.413 610.377 134.24C610.071 134.053 609.691 133.96 609.237 133.96C608.811 133.96 608.437 134.053 608.117 134.24C607.811 134.413 607.657 134.673 607.657 135.02C607.657 135.3 607.744 135.527 607.917 135.7C608.104 135.873 608.317 136.013 608.557 136.12C608.811 136.227 609.077 136.307 609.357 136.36C609.637 136.413 609.877 136.46 610.077 136.5C610.464 136.593 610.824 136.707 611.157 136.84C611.504 136.973 611.797 137.147 612.037 137.36C612.291 137.573 612.484 137.833 612.617 138.14C612.764 138.447 612.837 138.82 612.837 139.26C612.837 139.793 612.724 140.253 612.497 140.64C612.271 141.013 611.977 141.32 611.617 141.56C611.257 141.8 610.844 141.973 610.377 142.08C609.924 142.187 609.464 142.24 608.997 142.24C608.211 142.24 607.517 142.12 606.917 141.88C606.331 141.64 605.804 141.2 605.337 140.56L606.697 139.44C606.991 139.733 607.317 139.993 607.677 140.22C608.037 140.447 608.477 140.56 608.997 140.56C609.224 140.56 609.451 140.54 609.677 140.5C609.917 140.447 610.124 140.373 610.297 140.28C610.484 140.173 610.631 140.047 610.737 139.9C610.857 139.74 610.917 139.56 610.917 139.36C610.917 139.093 610.831 138.873 610.657 138.7C610.497 138.527 610.297 138.393 610.057 138.3C609.831 138.193 609.584 138.113 609.317 138.06C609.064 137.993 608.837 137.94 608.637 137.9C608.251 137.807 607.884 137.7 607.537 137.58C607.191 137.46 606.884 137.3 606.617 137.1C606.351 136.9 606.137 136.647 605.977 136.34C605.817 136.033 605.737 135.653 605.737 135.2C605.737 134.707 605.837 134.28 606.037 133.92C606.251 133.547 606.524 133.24 606.857 133C607.204 132.76 607.591 132.58 608.017 132.46C608.457 132.34 608.897 132.28 609.337 132.28C609.977 132.28 610.591 132.4 611.177 132.64C611.764 132.88 612.231 133.28 612.577 133.84L611.177 134.9Z" fill="black"/>
<path d="M717.222 123.84H719.142V138H717.222V123.84ZM722.329 128.52H724.009V130H724.049C724.089 129.867 724.189 129.7 724.349 129.5C724.522 129.3 724.735 129.113 724.989 128.94C725.255 128.753 725.562 128.6 725.909 128.48C726.269 128.347 726.662 128.28 727.089 128.28C727.795 128.28 728.389 128.427 728.869 128.72C729.349 129.013 729.742 129.453 730.049 130.04C730.355 129.453 730.789 129.013 731.349 128.72C731.909 128.427 732.475 128.28 733.049 128.28C733.782 128.28 734.382 128.4 734.849 128.64C735.315 128.88 735.682 129.2 735.949 129.6C736.215 129.987 736.395 130.433 736.489 130.94C736.595 131.433 736.649 131.947 736.649 132.48V138H734.849V132.72C734.849 132.36 734.822 132.013 734.769 131.68C734.729 131.347 734.635 131.053 734.489 130.8C734.342 130.547 734.135 130.347 733.869 130.2C733.602 130.04 733.249 129.96 732.809 129.96C731.942 129.96 731.322 130.227 730.949 130.76C730.575 131.293 730.389 131.98 730.389 132.82V138H728.589V133.04C728.589 132.587 728.562 132.173 728.509 131.8C728.469 131.427 728.375 131.107 728.229 130.84C728.095 130.56 727.895 130.347 727.629 130.2C727.375 130.04 727.029 129.96 726.589 129.96C726.269 129.96 725.955 130.027 725.649 130.16C725.355 130.28 725.095 130.467 724.869 130.72C724.642 130.973 724.462 131.3 724.329 131.7C724.195 132.087 724.129 132.547 724.129 133.08V138H722.329V128.52ZM739.4 129.68C739.907 129.213 740.493 128.867 741.16 128.64C741.827 128.4 742.493 128.28 743.16 128.28C743.853 128.28 744.447 128.367 744.94 128.54C745.447 128.713 745.86 128.947 746.18 129.24C746.5 129.533 746.733 129.873 746.88 130.26C747.04 130.633 747.12 131.027 747.12 131.44V136.28C747.12 136.613 747.127 136.92 747.14 137.2C747.153 137.48 747.173 137.747 747.2 138H745.6C745.56 137.52 745.54 137.04 745.54 136.56H745.5C745.1 137.173 744.627 137.607 744.08 137.86C743.533 138.113 742.9 138.24 742.18 138.24C741.74 138.24 741.32 138.18 740.92 138.06C740.52 137.94 740.167 137.76 739.86 137.52C739.567 137.28 739.333 136.987 739.16 136.64C738.987 136.28 738.9 135.867 738.9 135.4C738.9 134.787 739.033 134.273 739.3 133.86C739.58 133.447 739.953 133.113 740.42 132.86C740.9 132.593 741.453 132.407 742.08 132.3C742.72 132.18 743.4 132.12 744.12 132.12H745.44V131.72C745.44 131.48 745.393 131.24 745.3 131C745.207 130.76 745.067 130.547 744.88 130.36C744.693 130.16 744.46 130.007 744.18 129.9C743.9 129.78 743.567 129.72 743.18 129.72C742.833 129.72 742.527 129.753 742.26 129.82C742.007 129.887 741.773 129.973 741.56 130.08C741.347 130.173 741.153 130.287 740.98 130.42C740.807 130.553 740.64 130.68 740.48 130.8L739.4 129.68ZM744.48 133.44C744.053 133.44 743.613 133.467 743.16 133.52C742.72 133.56 742.313 133.647 741.94 133.78C741.58 133.913 741.28 134.1 741.04 134.34C740.813 134.58 740.7 134.887 740.7 135.26C740.7 135.807 740.88 136.2 741.24 136.44C741.613 136.68 742.113 136.8 742.74 136.8C743.233 136.8 743.653 136.72 744 136.56C744.347 136.387 744.627 136.167 744.84 135.9C745.053 135.633 745.207 135.34 745.3 135.02C745.393 134.687 745.44 134.36 745.44 134.04V133.44H744.48ZM759.231 137.92C759.231 138.64 759.104 139.293 758.851 139.88C758.611 140.48 758.264 140.993 757.811 141.42C757.358 141.86 756.811 142.2 756.171 142.44C755.531 142.68 754.824 142.8 754.051 142.8C753.144 142.8 752.311 142.673 751.551 142.42C750.804 142.167 750.091 141.727 749.411 141.1L750.631 139.58C751.098 140.087 751.604 140.467 752.151 140.72C752.698 140.987 753.318 141.12 754.011 141.12C754.678 141.12 755.231 141.02 755.671 140.82C756.111 140.633 756.458 140.387 756.711 140.08C756.978 139.773 757.164 139.42 757.271 139.02C757.378 138.633 757.431 138.24 757.431 137.84V136.44H757.371C757.024 137.013 756.551 137.44 755.951 137.72C755.364 137.987 754.744 138.12 754.091 138.12C753.398 138.12 752.751 138 752.151 137.76C751.564 137.507 751.058 137.167 750.631 136.74C750.204 136.3 749.871 135.787 749.631 135.2C749.391 134.6 749.271 133.953 749.271 133.26C749.271 132.567 749.384 131.92 749.611 131.32C749.838 130.707 750.158 130.173 750.571 129.72C750.998 129.267 751.504 128.913 752.091 128.66C752.691 128.407 753.358 128.28 754.091 128.28C754.731 128.28 755.351 128.42 755.951 128.7C756.564 128.98 757.044 129.373 757.391 129.88H757.431V128.52H759.231V137.92ZM754.311 129.96C753.831 129.96 753.398 130.047 753.011 130.22C752.624 130.38 752.298 130.607 752.031 130.9C751.764 131.18 751.558 131.527 751.411 131.94C751.264 132.34 751.191 132.78 751.191 133.26C751.191 134.22 751.471 134.993 752.031 135.58C752.591 136.153 753.351 136.44 754.311 136.44C755.271 136.44 756.031 136.153 756.591 135.58C757.151 134.993 757.431 134.22 757.431 133.26C757.431 132.78 757.358 132.34 757.211 131.94C757.064 131.527 756.858 131.18 756.591 130.9C756.324 130.607 755.998 130.38 755.611 130.22C755.224 130.047 754.791 129.96 754.311 129.96ZM763.318 133.92C763.318 134.333 763.404 134.713 763.578 135.06C763.764 135.393 764.004 135.68 764.298 135.92C764.591 136.16 764.931 136.347 765.318 136.48C765.704 136.613 766.104 136.68 766.518 136.68C767.078 136.68 767.564 136.553 767.978 136.3C768.391 136.033 768.771 135.687 769.118 135.26L770.478 136.3C769.478 137.593 768.078 138.24 766.278 138.24C765.531 138.24 764.851 138.113 764.238 137.86C763.638 137.607 763.124 137.26 762.698 136.82C762.284 136.367 761.964 135.84 761.738 135.24C761.511 134.627 761.398 133.967 761.398 133.26C761.398 132.553 761.518 131.9 761.758 131.3C762.011 130.687 762.351 130.16 762.778 129.72C763.218 129.267 763.738 128.913 764.338 128.66C764.938 128.407 765.591 128.28 766.298 128.28C767.138 128.28 767.844 128.427 768.418 128.72C769.004 129.013 769.484 129.4 769.858 129.88C770.231 130.347 770.498 130.88 770.658 131.48C770.831 132.067 770.918 132.667 770.918 133.28V133.92H763.318ZM768.998 132.48C768.984 132.08 768.918 131.713 768.798 131.38C768.691 131.047 768.524 130.76 768.298 130.52C768.071 130.267 767.784 130.073 767.438 129.94C767.104 129.793 766.711 129.72 766.258 129.72C765.818 129.72 765.411 129.807 765.038 129.98C764.678 130.14 764.371 130.353 764.118 130.62C763.864 130.887 763.664 131.187 763.518 131.52C763.384 131.84 763.318 132.16 763.318 132.48H768.998ZM778.111 130.9C777.898 130.633 777.631 130.413 777.311 130.24C777.004 130.053 776.624 129.96 776.171 129.96C775.744 129.96 775.371 130.053 775.051 130.24C774.744 130.413 774.591 130.673 774.591 131.02C774.591 131.3 774.678 131.527 774.851 131.7C775.038 131.873 775.251 132.013 775.491 132.12C775.744 132.227 776.011 132.307 776.291 132.36C776.571 132.413 776.811 132.46 777.011 132.5C777.398 132.593 777.758 132.707 778.091 132.84C778.438 132.973 778.731 133.147 778.971 133.36C779.224 133.573 779.418 133.833 779.551 134.14C779.698 134.447 779.771 134.82 779.771 135.26C779.771 135.793 779.658 136.253 779.431 136.64C779.204 137.013 778.911 137.32 778.551 137.56C778.191 137.8 777.778 137.973 777.311 138.08C776.858 138.187 776.398 138.24 775.931 138.24C775.144 138.24 774.451 138.12 773.851 137.88C773.264 137.64 772.738 137.2 772.271 136.56L773.631 135.44C773.924 135.733 774.251 135.993 774.611 136.22C774.971 136.447 775.411 136.56 775.931 136.56C776.158 136.56 776.384 136.54 776.611 136.5C776.851 136.447 777.058 136.373 777.231 136.28C777.418 136.173 777.564 136.047 777.671 135.9C777.791 135.74 777.851 135.56 777.851 135.36C777.851 135.093 777.764 134.873 777.591 134.7C777.431 134.527 777.231 134.393 776.991 134.3C776.764 134.193 776.518 134.113 776.251 134.06C775.998 133.993 775.771 133.94 775.571 133.9C775.184 133.807 774.818 133.7 774.471 133.58C774.124 133.46 773.818 133.3 773.551 133.1C773.284 132.9 773.071 132.647 772.911 132.34C772.751 132.033 772.671 131.653 772.671 131.2C772.671 130.707 772.771 130.28 772.971 129.92C773.184 129.547 773.458 129.24 773.791 129C774.138 128.76 774.524 128.58 774.951 128.46C775.391 128.34 775.831 128.28 776.271 128.28C776.911 128.28 777.524 128.4 778.111 128.64C778.698 128.88 779.164 129.28 779.511 129.84L778.111 130.9Z" fill="black"/>
<path d="M892.304 127.84H894.524L898.684 139.36H898.724L903.044 127.84H905.144L899.564 142H897.764L892.304 127.84ZM906.17 132.52H907.97V142H906.17V132.52ZM905.75 129.12C905.75 128.76 905.877 128.453 906.13 128.2C906.397 127.933 906.71 127.8 907.07 127.8C907.43 127.8 907.737 127.933 907.99 128.2C908.257 128.453 908.39 128.76 908.39 129.12C908.39 129.48 908.257 129.793 907.99 130.06C907.737 130.313 907.43 130.44 907.07 130.44C906.71 130.44 906.397 130.313 906.13 130.06C905.877 129.793 905.75 129.48 905.75 129.12ZM920.335 142H918.535V140.64H918.495C918.148 141.147 917.668 141.54 917.055 141.82C916.455 142.1 915.835 142.24 915.195 142.24C914.461 142.24 913.795 142.113 913.195 141.86C912.608 141.607 912.101 141.253 911.675 140.8C911.261 140.347 910.941 139.82 910.715 139.22C910.488 138.62 910.375 137.967 910.375 137.26C910.375 136.553 910.488 135.9 910.715 135.3C910.941 134.687 911.261 134.16 911.675 133.72C912.101 133.267 912.608 132.913 913.195 132.66C913.795 132.407 914.461 132.28 915.195 132.28C915.875 132.28 916.515 132.427 917.115 132.72C917.715 133 918.175 133.387 918.495 133.88H918.535V126.88H920.335V142ZM915.415 140.56C915.895 140.56 916.328 140.48 916.715 140.32C917.101 140.147 917.428 139.92 917.695 139.64C917.961 139.347 918.168 139 918.315 138.6C918.461 138.187 918.535 137.74 918.535 137.26C918.535 136.78 918.461 136.34 918.315 135.94C918.168 135.527 917.961 135.18 917.695 134.9C917.428 134.607 917.101 134.38 916.715 134.22C916.328 134.047 915.895 133.96 915.415 133.96C914.935 133.96 914.501 134.047 914.115 134.22C913.728 134.38 913.401 134.607 913.135 134.9C912.868 135.18 912.661 135.527 912.515 135.94C912.368 136.34 912.295 136.78 912.295 137.26C912.295 137.74 912.368 138.187 912.515 138.6C912.661 139 912.868 139.347 913.135 139.64C913.401 139.92 913.728 140.147 914.115 140.32C914.501 140.48 914.935 140.56 915.415 140.56ZM924.421 137.92C924.421 138.333 924.508 138.713 924.681 139.06C924.868 139.393 925.108 139.68 925.401 139.92C925.695 140.16 926.035 140.347 926.421 140.48C926.808 140.613 927.208 140.68 927.621 140.68C928.181 140.68 928.668 140.553 929.081 140.3C929.495 140.033 929.875 139.687 930.221 139.26L931.581 140.3C930.581 141.593 929.181 142.24 927.381 142.24C926.635 142.24 925.955 142.113 925.341 141.86C924.741 141.607 924.228 141.26 923.801 140.82C923.388 140.367 923.068 139.84 922.841 139.24C922.615 138.627 922.501 137.967 922.501 137.26C922.501 136.553 922.621 135.9 922.861 135.3C923.115 134.687 923.455 134.16 923.881 133.72C924.321 133.267 924.841 132.913 925.441 132.66C926.041 132.407 926.695 132.28 927.401 132.28C928.241 132.28 928.948 132.427 929.521 132.72C930.108 133.013 930.588 133.4 930.961 133.88C931.335 134.347 931.601 134.88 931.761 135.48C931.935 136.067 932.021 136.667 932.021 137.28V137.92H924.421ZM930.101 136.48C930.088 136.08 930.021 135.713 929.901 135.38C929.795 135.047 929.628 134.76 929.401 134.52C929.175 134.267 928.888 134.073 928.541 133.94C928.208 133.793 927.815 133.72 927.361 133.72C926.921 133.72 926.515 133.807 926.141 133.98C925.781 134.14 925.475 134.353 925.221 134.62C924.968 134.887 924.768 135.187 924.621 135.52C924.488 135.84 924.421 136.16 924.421 136.48H930.101ZM935.634 137.26C935.634 137.74 935.708 138.187 935.854 138.6C936.001 139 936.208 139.347 936.474 139.64C936.741 139.92 937.068 140.147 937.454 140.32C937.841 140.48 938.274 140.56 938.754 140.56C939.234 140.56 939.668 140.48 940.054 140.32C940.441 140.147 940.768 139.92 941.034 139.64C941.301 139.347 941.508 139 941.654 138.6C941.801 138.187 941.874 137.74 941.874 137.26C941.874 136.78 941.801 136.34 941.654 135.94C941.508 135.527 941.301 135.18 941.034 134.9C940.768 134.607 940.441 134.38 940.054 134.22C939.668 134.047 939.234 133.96 938.754 133.96C938.274 133.96 937.841 134.047 937.454 134.22C937.068 134.38 936.741 134.607 936.474 134.9C936.208 135.18 936.001 135.527 935.854 135.94C935.708 136.34 935.634 136.78 935.634 137.26ZM933.714 137.26C933.714 136.567 933.841 135.92 934.094 135.32C934.361 134.72 934.721 134.193 935.174 133.74C935.628 133.287 936.161 132.933 936.774 132.68C937.388 132.413 938.048 132.28 938.754 132.28C939.461 132.28 940.121 132.413 940.734 132.68C941.348 132.933 941.881 133.287 942.334 133.74C942.788 134.193 943.141 134.72 943.394 135.32C943.661 135.92 943.794 136.567 943.794 137.26C943.794 137.953 943.661 138.607 943.394 139.22C943.141 139.82 942.788 140.347 942.334 140.8C941.881 141.24 941.348 141.593 940.734 141.86C940.121 142.113 939.461 142.24 938.754 142.24C938.048 142.24 937.388 142.113 936.774 141.86C936.161 141.593 935.628 141.24 935.174 140.8C934.721 140.347 934.361 139.82 934.094 139.22C933.841 138.607 933.714 137.953 933.714 137.26ZM951.089 134.9C950.876 134.633 950.609 134.413 950.289 134.24C949.983 134.053 949.603 133.96 949.149 133.96C948.723 133.96 948.349 134.053 948.029 134.24C947.723 134.413 947.569 134.673 947.569 135.02C947.569 135.3 947.656 135.527 947.829 135.7C948.016 135.873 948.229 136.013 948.469 136.12C948.723 136.227 948.989 136.307 949.269 136.36C949.549 136.413 949.789 136.46 949.989 136.5C950.376 136.593 950.736 136.707 951.069 136.84C951.416 136.973 951.709 137.147 951.949 137.36C952.203 137.573 952.396 137.833 952.529 138.14C952.676 138.447 952.749 138.82 952.749 139.26C952.749 139.793 952.636 140.253 952.409 140.64C952.183 141.013 951.889 141.32 951.529 141.56C951.169 141.8 950.756 141.973 950.289 142.08C949.836 142.187 949.376 142.24 948.909 142.24C948.123 142.24 947.429 142.12 946.829 141.88C946.243 141.64 945.716 141.2 945.249 140.56L946.609 139.44C946.903 139.733 947.229 139.993 947.589 140.22C947.949 140.447 948.389 140.56 948.909 140.56C949.136 140.56 949.363 140.54 949.589 140.5C949.829 140.447 950.036 140.373 950.209 140.28C950.396 140.173 950.543 140.047 950.649 139.9C950.769 139.74 950.829 139.56 950.829 139.36C950.829 139.093 950.743 138.873 950.569 138.7C950.409 138.527 950.209 138.393 949.969 138.3C949.743 138.193 949.496 138.113 949.229 138.06C948.976 137.993 948.749 137.94 948.549 137.9C948.163 137.807 947.796 137.7 947.449 137.58C947.103 137.46 946.796 137.3 946.529 137.1C946.263 136.9 946.049 136.647 945.889 136.34C945.729 136.033 945.649 135.653 945.649 135.2C945.649 134.707 945.749 134.28 945.949 133.92C946.163 133.547 946.436 133.24 946.769 133C947.116 132.76 947.503 132.58 947.929 132.46C948.369 132.34 948.809 132.28 949.249 132.28C949.889 132.28 950.503 132.4 951.089 132.64C951.676 132.88 952.143 133.28 952.489 133.84L951.089 134.9Z" fill="black"/>
<circle cx="46.5" cy="46.5" r="46.5" fill="#A4DE5C"/>
<ellipse cx="220" cy="46.5" rx="47" ry="46.5" fill="#DE6161"/>
<ellipse cx="748" cy="46.5" rx="47" ry="46.5" fill="#DE6161"/>
<circle cx="397.5" cy="46.5" r="46.5" fill="#A4DE5C"/>
<circle cx="570.5" cy="46.5" r="46.5" fill="#A4DE5C"/>
<circle cx="922.5" cy="46.5" r="46.5" fill="#A4DE5C"/>
</svg>
