<svg width="57" height="33" viewBox="0 0 57 33" fill="none" xmlns="http://www.w3.org/2000/svg">
<path d="M4.54755 15.504C4.73955 14.144 5.13955 12.912 5.74755 11.808C6.37155 10.704 7.13955 9.768 8.05155 9C8.97955 8.216 10.0355 7.616 11.2196 7.2C12.4036 6.784 13.6596 6.576 14.9875 6.576C16.3155 6.576 17.5076 6.784 18.5636 7.2C19.6196 7.616 20.4996 8.216 21.2035 9C21.9076 9.768 22.4116 10.704 22.7156 11.808C23.0196 12.912 23.0756 14.144 22.8836 15.504C22.6916 16.864 22.2916 18.096 21.6836 19.2C21.0756 20.304 20.3076 21.248 19.3796 22.032C18.4516 22.8 17.3955 23.392 16.2115 23.808C15.0436 24.224 13.7956 24.432 12.4676 24.432C11.1395 24.432 9.93955 24.224 8.86755 23.808C7.81155 23.392 6.93155 22.8 6.22755 22.032C5.52355 21.248 5.01955 20.304 4.71555 19.2C4.41155 18.096 4.35555 16.864 4.54755 15.504ZM8.43555 15.504C8.32355 16.304 8.34755 17.04 8.50755 17.712C8.66755 18.368 8.93955 18.944 9.32355 19.44C9.72355 19.92 10.2276 20.296 10.8356 20.568C11.4436 20.84 12.1476 20.976 12.9476 20.976C13.7476 20.976 14.4915 20.84 15.1796 20.568C15.8675 20.296 16.4756 19.92 17.0036 19.44C17.5316 18.944 17.9636 18.368 18.2996 17.712C18.6516 17.04 18.8836 16.304 18.9956 15.504C19.1076 14.72 19.0836 13.992 18.9236 13.32C18.7796 12.648 18.5076 12.072 18.1075 11.592C17.7076 11.096 17.2036 10.712 16.5956 10.44C15.9876 10.168 15.2836 10.032 14.4835 10.032C13.6836 10.032 12.9396 10.168 12.2515 10.44C11.5636 10.712 10.9556 11.096 10.4275 11.592C9.89955 12.072 9.45955 12.648 9.10755 13.32C8.77155 13.992 8.54755 14.72 8.43555 15.504ZM24.1563 21.936C24.2043 21.632 24.3003 21.344 24.4443 21.072C24.6043 20.8 24.7963 20.568 25.0203 20.376C25.2443 20.168 25.5003 20.008 25.7883 19.896C26.0763 19.784 26.3723 19.728 26.6763 19.728C27.2843 19.728 27.7723 19.944 28.1403 20.376C28.5083 20.808 28.6523 21.328 28.5723 21.936C28.5243 22.24 28.4203 22.528 28.2603 22.8C28.1163 23.072 27.9243 23.312 27.6843 23.52C27.4603 23.712 27.2043 23.864 26.9163 23.976C26.6443 24.088 26.3563 24.144 26.0523 24.144C25.7483 24.144 25.4683 24.088 25.2123 23.976C24.9563 23.864 24.7403 23.712 24.5643 23.52C24.4043 23.312 24.2843 23.072 24.2043 22.8C24.1243 22.528 24.1083 22.24 24.1563 21.936ZM33.7299 7.008H38.8179L44.3859 18.816H44.4339L46.0899 7.008H49.8339L47.4579 24H42.5619L36.8259 11.904H36.7779L35.0979 24H31.3539L33.7299 7.008ZM50.8282 21.936C50.8762 21.632 50.9722 21.344 51.1162 21.072C51.2762 20.8 51.4682 20.568 51.6922 20.376C51.9162 20.168 52.1722 20.008 52.4602 19.896C52.7482 19.784 53.0442 19.728 53.3482 19.728C53.9562 19.728 54.4442 19.944 54.8122 20.376C55.1802 20.808 55.3242 21.328 55.2442 21.936C55.1962 22.24 55.0922 22.528 54.9322 22.8C54.7882 23.072 54.5962 23.312 54.3562 23.52C54.1322 23.712 53.8762 23.864 53.5882 23.976C53.3162 24.088 53.0282 24.144 52.7242 24.144C52.4202 24.144 52.1402 24.088 51.8842 23.976C51.6282 23.864 51.4122 23.712 51.2362 23.52C51.0762 23.312 50.9562 23.072 50.8762 22.8C50.7962 22.528 50.7802 22.24 50.8282 21.936Z" fill="#333333"/>
<path d="M1.992 15.504C2.184 14.144 2.584 12.912 3.192 11.808C3.816 10.704 4.584 9.768 5.496 9C6.424 8.216 7.48 7.616 8.664 7.2C9.848 6.784 11.104 6.576 12.432 6.576C13.76 6.576 14.952 6.784 16.008 7.2C17.064 7.616 17.944 8.216 18.648 9C19.352 9.768 19.856 10.704 20.16 11.808C20.464 12.912 20.52 14.144 20.328 15.504C20.136 16.864 19.736 18.096 19.128 19.2C18.52 20.304 17.752 21.248 16.824 22.032C15.896 22.8 14.84 23.392 13.656 23.808C12.488 24.224 11.24 24.432 9.912 24.432C8.584 24.432 7.384 24.224 6.312 23.808C5.256 23.392 4.376 22.8 3.672 22.032C2.968 21.248 2.464 20.304 2.16 19.2C1.856 18.096 1.8 16.864 1.992 15.504ZM5.88 15.504C5.768 16.304 5.792 17.04 5.952 17.712C6.112 18.368 6.384 18.944 6.768 19.44C7.168 19.92 7.672 20.296 8.28 20.568C8.888 20.84 9.592 20.976 10.392 20.976C11.192 20.976 11.936 20.84 12.624 20.568C13.312 20.296 13.92 19.92 14.448 19.44C14.976 18.944 15.408 18.368 15.744 17.712C16.096 17.04 16.328 16.304 16.44 15.504C16.552 14.72 16.528 13.992 16.368 13.32C16.224 12.648 15.952 12.072 15.552 11.592C15.152 11.096 14.648 10.712 14.04 10.44C13.432 10.168 12.728 10.032 11.928 10.032C11.128 10.032 10.384 10.168 9.696 10.44C9.008 10.712 8.4 11.096 7.872 11.592C7.344 12.072 6.904 12.648 6.552 13.32C6.216 13.992 5.992 14.72 5.88 15.504ZM21.6008 21.936C21.6488 21.632 21.7448 21.344 21.8888 21.072C22.0488 20.8 22.2408 20.568 22.4648 20.376C22.6888 20.168 22.9448 20.008 23.2328 19.896C23.5208 19.784 23.8168 19.728 24.1208 19.728C24.7288 19.728 25.2168 19.944 25.5848 20.376C25.9528 20.808 26.0968 21.328 26.0168 21.936C25.9688 22.24 25.8648 22.528 25.7048 22.8C25.5608 23.072 25.3688 23.312 25.1288 23.52C24.9048 23.712 24.6488 23.864 24.3608 23.976C24.0888 24.088 23.8008 24.144 23.4967 24.144C23.1928 24.144 22.9128 24.088 22.6568 23.976C22.4008 23.864 22.1848 23.712 22.0088 23.52C21.8488 23.312 21.7288 23.072 21.6488 22.8C21.5688 22.528 21.5528 22.24 21.6008 21.936ZM31.1743 7.008H36.2623L41.8303 18.816H41.8783L43.5343 7.008H47.2783L44.9023 24H40.0063L34.2703 11.904H34.2223L32.5423 24H28.7983L31.1743 7.008ZM48.2726 21.936C48.3206 21.632 48.4166 21.344 48.5606 21.072C48.7206 20.8 48.9126 20.568 49.1366 20.376C49.3606 20.168 49.6166 20.008 49.9046 19.896C50.1926 19.784 50.4886 19.728 50.7926 19.728C51.4006 19.728 51.8886 19.944 52.2566 20.376C52.6246 20.808 52.7686 21.328 52.6886 21.936C52.6406 22.24 52.5366 22.528 52.3766 22.8C52.2326 23.072 52.0406 23.312 51.8006 23.52C51.5766 23.712 51.3206 23.864 51.0326 23.976C50.7606 24.088 50.4726 24.144 50.1686 24.144C49.8646 24.144 49.5846 24.088 49.3286 23.976C49.0726 23.864 48.8566 23.712 48.6806 23.52C48.5206 23.312 48.4006 23.072 48.3206 22.8C48.2406 22.528 48.2246 22.24 48.2726 21.936Z" fill="#57BC7F"/>
</svg>
